<svg id="Layer_1" data-name="Layer 1" xmlns="http://www.w3.org/2000/svg" viewBox="0 0 149.25 201.3"><defs><style>.cls-1{fill:#ac693b;}.cls-2{fill:#231f20;}.cls-3{fill:#d5dd24;}.cls-4{fill:#099db1;}.cls-5{fill:#2f2c2e;}.cls-6{fill:#96583b;}.cls-7{fill:#241f20;}.cls-8{fill:#985c32;}.cls-9{fill:#e91d24;}</style></defs><title>child3</title><path class="cls-1" d="M736.36,411.73a68.69,68.69,0,0,1-11.1,15.07,70.29,70.29,0,0,1-13.16,10.52,13,13,0,0,1-2.05,1.21c-1.27.49-1.52,1.33-1.48,2.6.11,3.56.07,7.13.08,10.7l-.17,0V439.48a95,95,0,0,1-38.43,11,1.25,1.25,0,0,0-.08.22c0,.39-.07.79-.11,1.19l-.3-.09.16-1.2c-1.14,0-2.13,0-3.13,0-5,.22-9.41-1.43-13.54-4-7-4.46-12.23-10.7-16.56-17.69a100.15,100.15,0,0,1-12.82-34,122.45,122.45,0,0,1-2.39-24.53c.05-5.51,0-11,.33-16.54.72-12.42,2.48-24.67,6.46-36.53.28-.38.58-.76.85-1.15a52.8,52.8,0,0,1,13.86-13.86c1.86-1.27,3.49-2,5.45-.47a2,2,0,0,0,.23.07,95.83,95.83,0,0,0,19.2,5.21,54.06,54.06,0,0,0,22.86-.59,90.89,90.89,0,0,0,17-6.18,1.72,1.72,0,0,1,1.86.14c9,5.3,15,13.18,19,22.63,5.13,12,7,24.82,8.22,37.72.22,2.3.39,4.6.6,7.07a23.31,23.31,0,0,1,12.89-2.48,22.18,22.18,0,0,1,17.44,11.4,21.67,21.67,0,0,1,3,11.81,22.77,22.77,0,0,1-18.13,21.61,24.53,24.53,0,0,1-13.54-1.24l-1.76-1Zm-40.89-11.92-23.19,0-27.64,0h-4.46a3.82,3.82,0,0,0,0,.55c1.44,7.53,5.32,13.4,12,17.18a49.91,49.91,0,0,0,6.29,2.5,5.87,5.87,0,0,0,.86.37,39.34,39.34,0,0,0,12.69,1,71.26,71.26,0,0,0,7.48-1.39c8.82-2.27,19-13.48,18.15-20.2Zm-56.41-34.68c0,3.69,0,7.38,0,11.07a3.79,3.79,0,0,0,3.87,3.89c2.61,0,5.21,0,7.82,0a3.85,3.85,0,0,0,3.94-3.87q.07-11,0-21.9a3.85,3.85,0,0,0-3.92-3.89q-3.91,0-7.82,0a3.8,3.8,0,0,0-3.89,4Q639.05,359.78,639.06,365.13Zm49.18.14c0-3.61,0-7.22,0-10.83a3.85,3.85,0,0,0-4-4c-2.53,0-5.06,0-7.58,0a3.91,3.91,0,0,0-4.06,4q0,10.81,0,21.65a3.88,3.88,0,0,0,4,4q3.68,0,7.34,0c2.71,0,4.27-1.54,4.28-4.24C688.25,372.33,688.24,368.8,688.24,365.27Zm-35.87-34.18c-2.48.3-4.64.44-6.76.84a32.8,32.8,0,0,0-18.26,9.95,4,4,0,0,0-.81,2.61,3.09,3.09,0,0,0,2.25,3,3.7,3.7,0,0,0,4.05-1c7.28-6.94,15.85-9.33,25.68-7.25,2.31.49,4.15-.52,4.62-2.5a3.54,3.54,0,0,0-3-4.42C657.47,331.73,654.77,331.44,652.37,331.09Zm31.34-.58c-2.06.23-4.14.37-6.19.7a30.74,30.74,0,0,0-4.3,1.08,3.47,3.47,0,0,0-2.41,4.53,3.52,3.52,0,0,0,4.53,2.25,27,27,0,0,1,22.24,2.47c1.62.94,3,2.19,4.58,3.28a3.46,3.46,0,0,0,4.94-.6,3.4,3.4,0,0,0-.33-4.77,14.15,14.15,0,0,0-1.15-1.05A35.26,35.26,0,0,0,683.71,330.51Zm56.57,74a13.46,13.46,0,0,0,13.14-22.6c-4.71-4.54-11.21-4.58-14.75-2.48C750.25,384,750.85,398.8,740.28,404.48Z" transform="translate(-621.27 -278.96)"/><path class="cls-2" d="M750.1,365.35a23.31,23.31,0,0,0-12.89,2.48c-.21-2.47-.38-4.77-.6-7.07-1.24-12.9-3.09-25.68-8.22-37.72-4-9.45-10-17.33-19-22.63a1.72,1.72,0,0,0-1.86-.14,90.89,90.89,0,0,1-17,6.18,54.06,54.06,0,0,1-22.86.59,95.83,95.83,0,0,1-19.2-5.21,2,2,0,0,1-.23-.07c-2-1.5-3.59-.8-5.45.47a52.8,52.8,0,0,0-13.86,13.86c-.27.39-.57.77-.85,1.15.55-3,1-6,1.69-8.92,1.47-6.07,3.61-11.9,7.51-16.87a38.79,38.79,0,0,1,5.58-5.59,11.65,11.65,0,0,1,3.7-1.61,100.94,100.94,0,0,1,75.65,4.52,97.77,97.77,0,0,1,21.41,13.86,4.47,4.47,0,0,1,1.22,1.83A74.56,74.56,0,0,1,748.6,322c.72,7.56,1.37,15.15,1.68,22.74.27,6.43,0,12.89,0,19.33A11.71,11.71,0,0,1,750.1,365.35Z" transform="translate(-621.27 -278.96)"/><path class="cls-3" d="M669.56,451.8l.3.09a19.31,19.31,0,0,0,6.47,15.89c7.87,7.27,21.24,6.16,27.83-2.28a20,20,0,0,0,4.32-13.65l.17,0a28.21,28.21,0,0,1,17.12,7.84,24.75,24.75,0,0,1,5,6.25,95,95,0,0,1-14.42,7.18,19.84,19.84,0,0,0-18.77,5.44c-3.37.48-6.72,1.17-10.1,1.38a130.31,130.31,0,0,1-13.69.25,97.78,97.78,0,0,1-34.45-7.9,4.56,4.56,0,0,1-.53-.37c1.55-2,3-4.13,4.63-6a42,42,0,0,1,25.22-14C668.92,451.82,669.25,451.82,669.56,451.8Z" transform="translate(-621.27 -278.96)"/><path class="cls-4" d="M697.53,478.54a19.84,19.84,0,0,1,18.77-5.44A88.12,88.12,0,0,1,697.53,478.54Z" transform="translate(-621.27 -278.96)"/><path class="cls-5" d="M736.36,411.73c.23-1.2.45-2.39.72-3.82l1.76,1-2.38,4.29Z" transform="translate(-621.27 -278.96)"/><path class="cls-6" d="M708.48,451.85a20,20,0,0,1-4.32,13.65c-6.59,8.44-20,9.55-27.83,2.28a19.31,19.31,0,0,1-6.47-15.89c0-.4.07-.8.11-1.19a1.25,1.25,0,0,1,.08-.22,95,95,0,0,0,38.43-11Z" transform="translate(-621.27 -278.96)"/><path class="cls-7" d="M658.53,420a49.91,49.91,0,0,1-6.29-2.5c-6.71-3.78-10.59-9.65-12-17.18a3.82,3.82,0,0,1,0-.55h4.46a11.2,11.2,0,0,0,.15,2.26c.63,2.42,2.59,3.72,5.5,3.72h31.53c2.8,0,5.61,0,8.42,0a5,5,0,0,0,5.23-6h2.24c.8,6.72-9.33,17.93-18.15,20.2a12,12,0,0,0-12.32-5.65A11.36,11.36,0,0,0,658.53,420Z" transform="translate(-621.27 -278.96)"/><path class="cls-2" d="M639.06,365.13q0-5.36,0-10.71a3.8,3.8,0,0,1,3.89-4q3.9,0,7.82,0a3.85,3.85,0,0,1,3.92,3.89q.06,10.95,0,21.9a3.85,3.85,0,0,1-3.94,3.87c-2.61,0-5.21,0-7.82,0a3.79,3.79,0,0,1-3.87-3.89C639.05,372.51,639.06,368.82,639.06,365.13Z" transform="translate(-621.27 -278.96)"/><path class="cls-2" d="M688.24,365.27c0,3.53,0,7.06,0,10.58,0,2.7-1.57,4.23-4.28,4.24q-3.66,0-7.34,0a3.88,3.88,0,0,1-4-4q0-10.83,0-21.65a3.91,3.91,0,0,1,4.06-4c2.52,0,5,0,7.58,0a3.85,3.85,0,0,1,4,4C688.26,358.05,688.24,361.66,688.24,365.27Z" transform="translate(-621.27 -278.96)"/><path class="cls-7" d="M652.37,331.09c2.4.35,5.1.64,7.77,1.15a3.54,3.54,0,0,1,3,4.42c-.47,2-2.31,3-4.62,2.5-9.83-2.08-18.4.31-25.68,7.25a3.7,3.7,0,0,1-4.05,1,3.09,3.09,0,0,1-2.25-3,4,4,0,0,1,.81-2.61,32.8,32.8,0,0,1,18.26-9.95C647.73,331.53,649.89,331.39,652.37,331.09Z" transform="translate(-621.27 -278.96)"/><path class="cls-7" d="M683.71,330.51a35.26,35.26,0,0,1,21.91,7.89,14.15,14.15,0,0,1,1.15,1.05,3.4,3.4,0,0,1,.33,4.77,3.46,3.46,0,0,1-4.94.6c-1.53-1.09-3-2.34-4.58-3.28a27,27,0,0,0-22.24-2.47,3.52,3.52,0,0,1-4.53-2.25,3.47,3.47,0,0,1,2.41-4.53,30.74,30.74,0,0,1,4.3-1.08C679.57,330.88,681.65,330.74,683.71,330.51Z" transform="translate(-621.27 -278.96)"/><path class="cls-8" d="M740.28,404.48c10.57-5.68,10-20.53-1.61-25.08,3.54-2.1,10-2.06,14.75,2.48a13.46,13.46,0,0,1-13.14,22.6Z" transform="translate(-621.27 -278.96)"/><path class="cls-9" d="M658.53,420a11.36,11.36,0,0,1,8.71-5.68A12,12,0,0,1,679.56,420a71.26,71.26,0,0,1-7.48,1.39,39.34,39.34,0,0,1-12.69-1A5.87,5.87,0,0,1,658.53,420Z" transform="translate(-621.27 -278.96)"/></svg>