<svg id="Layer_1" data-name="Layer 1" xmlns="http://www.w3.org/2000/svg" viewBox="0 0 148.35 187.41"><defs><style>.cls-1{fill:#fff;}.cls-2{fill:#ac693b;}.cls-3{fill:#231f20;}.cls-4{fill:#d5dd24;}.cls-5{fill:#089db1;}.cls-6{fill:#2e2c2e;}.cls-7{fill:#96583b;}.cls-8{fill:#241f20;}.cls-9{fill:#242020;}.cls-10{fill:#985c32;}.cls-11{fill:#e91d24;}</style></defs><title>child3</title><rect class="cls-1" x="18.92" y="109.68" width="56" height="8" rx="4"/><path class="cls-2" d="M720.39,349.94c-1.39,2.12-2.67,4.33-4.21,6.33a63.08,63.08,0,0,1-5.17,5.9,72.9,72.9,0,0,1-6.18,5.74,64.6,64.6,0,0,1-11.49,7.49,1.28,1.28,0,0,0-.57.92c0,3.66,0,7.31,0,11l-.17,0V376.07c-4.36,1.75-8.49,3.64-12.78,5.07a96,96,0,0,1-24.62,4.79c-.6,0-.77.27-.75.82,0,.86,0,1.72,0,2.57l-.53-2.07.18-1.11c-1.16,0-2.23,0-3.29,0a24.42,24.42,0,0,1-13.38-3.89,44,44,0,0,1-7.56-5.82,49.22,49.22,0,0,1-7.13-8.33c-1.27-1.9-2.54-3.81-3.68-5.79a73.27,73.27,0,0,1-3.61-6.85c-1.38-3.13-2.49-6.38-3.81-9.54-1.86-4.47-2.5-9.23-3.59-13.9a85.89,85.89,0,0,1-2-20.77c.07-6.54.35-13.09.66-19.63a62.67,62.67,0,0,1,.93-8.65c1.05-5.51,2.3-11,3.57-16.45a42.42,42.42,0,0,1,1.58-4.56A48.06,48.06,0,0,1,623,251.23c2-1.46,4-2.85,6.07-4.18a2.24,2.24,0,0,1,1.73-.37,60.86,60.86,0,0,0,13.41,4.2c5.26,1,10.56,1.94,15.89,2.42,5.72.52,11.38-.47,16.93-1.9a101,101,0,0,0,14.85-5.23,1.91,1.91,0,0,1,1.41,0A41,41,0,0,1,708.44,260a38.26,38.26,0,0,1,3.33,5.79,82,82,0,0,1,3.86,9.73,124.15,124.15,0,0,1,3.14,12.75c.77,4,1.16,8.11,1.63,12.18.33,2.81.53,5.63.8,8.6a25.07,25.07,0,0,1,12.88-2.3,21.51,21.51,0,0,1,7.69,2.08,22.47,22.47,0,0,1,8.54,6.94,19.5,19.5,0,0,1,3.71,9.47,12.49,12.49,0,0,1,.37,3.34c-.54,3.58-1.22,7.18-3.33,10.23a22.21,22.21,0,0,1-7,6.71,23.75,23.75,0,0,1-17.39,2.87c-1.27-.26-2.5-.7-3.74-1.06l-1.86-.95Zm-40.54-11.09-23.5,0-27.19,0h-4.4a19.13,19.13,0,0,0,3,8.11,21.85,21.85,0,0,0,10.56,9.18c1.48.64,3.08,1,4.62,1.54,2.66.45,5.31,1.08,8,1.28a43.5,43.5,0,0,0,7.48-.2,48.69,48.69,0,0,0,5.45-1.1c10.42-2.53,17.53-12.25,18.05-18.81Zm-7.18-32.21c0-3.29-.11-6.58,0-9.86.09-1.8-2.15-4-3.83-3.93-2.73.07-5.46,0-8.18,0A3.86,3.86,0,0,0,657,296.7q0,10,0,19.95a3.84,3.84,0,0,0,3.83,3.83q4,0,8.07,0a3.93,3.93,0,0,0,3.81-3.87C672.68,313.29,672.67,310,672.67,306.64Zm-48.93,0v10a3.61,3.61,0,0,0,3.88,3.93c2.54,0,5.07,0,7.61,0a3.68,3.68,0,0,0,4-4q0-9.86,0-19.71a3.61,3.61,0,0,0-3.7-3.91c-2.72-.07-5.45-.06-8.17,0a3.52,3.52,0,0,0-3.6,3.74Zm12.76-31.66a34.74,34.74,0,0,0-16.06,4,53.28,53.28,0,0,0-7.33,4.87,6,6,0,0,0-2,3.17c-.4,1.76,2.43,4,4.15,3.3a14.58,14.58,0,0,0,3.79-2.41,27.07,27.07,0,0,1,17.4-6.13,34.56,34.56,0,0,1,6.93.79c1.91.36,4.7-1.29,4.46-3.47a3.78,3.78,0,0,0-3.47-3.19C641.73,275.5,639.11,275.24,636.5,274.94Zm18.66,4.19a3.38,3.38,0,0,0,4.52,3.19,29.82,29.82,0,0,1,10.59-1.15,27.49,27.49,0,0,1,15.55,6.08,6.19,6.19,0,0,0,2.31,1.07,3.41,3.41,0,0,0,3.58-1.75,3.07,3.07,0,0,0-.57-3.8,16.69,16.69,0,0,0-1.75-1.36,33.34,33.34,0,0,0-14.61-6.36,36,36,0,0,0-17.35,1A3.14,3.14,0,0,0,655.16,279.13Zm68.92,64.05a13.8,13.8,0,0,0,11.41-1.6,12.9,12.9,0,0,0,5.11-6,11.25,11.25,0,0,0,.67-6.55,11.76,11.76,0,0,0-4-7,13.35,13.35,0,0,0-10.44-3.33,38.48,38.48,0,0,0-4.08.87l0,.33c5.34,2.11,8.87,5.79,9,11.7C731.87,336.89,729.16,340.75,724.08,343.18Z" transform="translate(-606.08 -226.32)"/><path class="cls-3" d="M734.08,306.76a25.07,25.07,0,0,0-12.88,2.3c-.27-3-.47-5.79-.8-8.6-.47-4.07-.86-8.16-1.63-12.18a124.15,124.15,0,0,0-3.14-12.75,82,82,0,0,0-3.86-9.73,38.26,38.26,0,0,0-3.33-5.79,41,41,0,0,0-15.19-13.83,1.91,1.91,0,0,0-1.41,0A101,101,0,0,1,677,251.4c-5.55,1.43-11.21,2.42-16.93,1.9-5.33-.48-10.63-1.43-15.89-2.42a60.86,60.86,0,0,1-13.41-4.2,2.24,2.24,0,0,0-1.73.37c-2.06,1.33-4.09,2.72-6.07,4.18A48.06,48.06,0,0,0,612.83,262a85.8,85.8,0,0,1,1.69-8.62,75.64,75.64,0,0,1,3.71-9.76,23.13,23.13,0,0,1,3.59-5.53,35.05,35.05,0,0,1,5.83-5.39,16.24,16.24,0,0,1,4.86-1.86,103.28,103.28,0,0,1,17.91-3.74,109.2,109.2,0,0,1,18.53-.59,102.13,102.13,0,0,1,24.68,4.27c4.34,1.36,8.6,3,12.8,4.79a81.38,81.38,0,0,1,15.32,8.58c2,1.43,4,2.9,6,4.38a2.57,2.57,0,0,1,.76.94,51.68,51.68,0,0,1,3.26,12.16c.36,2.2.68,4.41.91,6.63.5,4.8,1.1,9.59,1.33,14.4.29,6.29.3,12.6.36,18.9C734.42,303.27,734.19,305,734.08,306.76Z" transform="translate(-606.08 -226.32)"/><path class="cls-4" d="M653.94,387.25c.18.69.35,1.38.53,2.07.13,5.83,2.77,10.25,7.43,13.64a19.33,19.33,0,0,0,15.38,3.33,18.51,18.51,0,0,0,13.86-10.48,17.54,17.54,0,0,0,1.49-8.5l.17,0a26.36,26.36,0,0,1,9.35,2.36,25.53,25.53,0,0,1,8.84,6.08c1.3,1.44,2.56,2.92,4,4.53-1.19.7-2,1.3-3,1.73-3.61,1.67-7.24,3.28-10.87,4.91a5.89,5.89,0,0,1-.75.2,18.72,18.72,0,0,0-8.52,0,19.71,19.71,0,0,0-10.07,5.12c-3.21.44-6.41,1.07-9.63,1.27-4.39.27-8.8.35-13.19.27a95.52,95.52,0,0,1-18.28-2.28,104.08,104.08,0,0,1-16.11-4.85c-.31-.12-.6-.27-1.09-.5A42.58,42.58,0,0,1,653.94,387.25Z" transform="translate(-606.08 -226.32)"/><path class="cls-5" d="M681.77,412.16A19.71,19.71,0,0,1,691.84,407a18.72,18.72,0,0,1,8.52,0A86.73,86.73,0,0,1,681.77,412.16Z" transform="translate(-606.08 -226.32)"/><path class="cls-6" d="M720.39,349.94l.68-3.55,1.86.95c-.79,1.23-1.57,2.47-2.46,3.87Z" transform="translate(-606.08 -226.32)"/><path class="cls-7" d="M692.63,387.31a17.54,17.54,0,0,1-1.49,8.5,18.51,18.51,0,0,1-13.86,10.48A19.33,19.33,0,0,1,661.9,403c-4.66-3.39-7.3-7.81-7.43-13.64,0-.85,0-1.71,0-2.57,0-.55.15-.79.75-.82a96,96,0,0,0,24.62-4.79c4.29-1.43,8.42-3.32,12.78-5.07Z" transform="translate(-606.08 -226.32)"/><path class="cls-8" d="M643,357.68c-1.54-.5-3.14-.9-4.62-1.54A21.85,21.85,0,0,1,627.81,347a19.13,19.13,0,0,1-3-8.11h4.4a5.83,5.83,0,0,0,.08,1.88,5.49,5.49,0,0,0,5.6,3.71c13.14,0,26.27,0,39.41,0a9.94,9.94,0,0,0,1.33-.11,4.82,4.82,0,0,0,4.27-5.46H682c-.52,6.56-7.63,16.28-18.05,18.81a15.32,15.32,0,0,0-2-2.37,12.92,12.92,0,0,0-9.64-3A12.37,12.37,0,0,0,643,357.68Z" transform="translate(-606.08 -226.32)"/><path class="cls-3" d="M672.67,306.64c0,3.32,0,6.65,0,10a3.93,3.93,0,0,1-3.81,3.87q-4,0-8.07,0a3.84,3.84,0,0,1-3.83-3.83q0-10,0-19.95a3.86,3.86,0,0,1,3.74-3.82c2.72-.05,5.45,0,8.18,0,1.68-.05,3.92,2.13,3.83,3.93C672.56,300.06,672.67,303.35,672.67,306.64Z" transform="translate(-606.08 -226.32)"/><path class="cls-3" d="M623.74,306.6v-10a3.52,3.52,0,0,1,3.6-3.74c2.72-.06,5.45-.07,8.17,0a3.61,3.61,0,0,1,3.7,3.91q0,9.85,0,19.71a3.68,3.68,0,0,1-4,4c-2.54,0-5.07,0-7.61,0a3.61,3.61,0,0,1-3.88-3.93Z" transform="translate(-606.08 -226.32)"/><path class="cls-9" d="M636.5,274.94c2.61.3,5.23.56,7.83.92a3.78,3.78,0,0,1,3.47,3.19c.24,2.18-2.55,3.83-4.46,3.47a34.56,34.56,0,0,0-6.93-.79,27.07,27.07,0,0,0-17.4,6.13,14.58,14.58,0,0,1-3.79,2.41c-1.72.68-4.55-1.54-4.15-3.3a6,6,0,0,1,2-3.17,53.28,53.28,0,0,1,7.33-4.87A34.74,34.74,0,0,1,636.5,274.94Z" transform="translate(-606.08 -226.32)"/><path class="cls-8" d="M655.16,279.13a3.14,3.14,0,0,1,2.27-3.11,36,36,0,0,1,17.35-1,33.34,33.34,0,0,1,14.61,6.36,16.69,16.69,0,0,1,1.75,1.36,3.07,3.07,0,0,1,.57,3.8,3.41,3.41,0,0,1-3.58,1.75,6.19,6.19,0,0,1-2.31-1.07,27.49,27.49,0,0,0-15.55-6.08,29.82,29.82,0,0,0-10.59,1.15A3.38,3.38,0,0,1,655.16,279.13Z" transform="translate(-606.08 -226.32)"/><path class="cls-10" d="M724.08,343.18c5.08-2.43,7.79-6.29,7.67-11.58-.14-5.91-3.67-9.59-9-11.7l0-.33a38.48,38.48,0,0,1,4.08-.87A13.35,13.35,0,0,1,737.22,322a11.76,11.76,0,0,1,4,7,11.25,11.25,0,0,1-.67,6.55,12.9,12.9,0,0,1-5.11,6A13.8,13.8,0,0,1,724.08,343.18Z" transform="translate(-606.08 -226.32)"/><path class="cls-11" d="M643,357.68a12.37,12.37,0,0,1,9.29-5.36,12.92,12.92,0,0,1,9.64,3,15.32,15.32,0,0,1,2,2.37,48.69,48.69,0,0,1-5.45,1.1,43.5,43.5,0,0,1-7.48.2C648.3,358.76,645.65,358.13,643,357.68Z" transform="translate(-606.08 -226.32)"/></svg>