<svg id="Layer_1" data-name="Layer 1" xmlns="http://www.w3.org/2000/svg" viewBox="0 0 125.52 138.02"><defs><style>.cls-1{fill:#fff;}.cls-2{fill:#d3f0fb;}.cls-3{fill:#ac683b;}.cls-4{fill:#232021;}.cls-5{fill:#ee5762;}.cls-6{fill:#242021;}.cls-7{fill:#96583b;}.cls-8{fill:#f5a843;}.cls-9{fill:#61564c;}.cls-10{fill:#c7ecfa;}.cls-11{fill:#9bdef7;}.cls-12{fill:#c2ebfa;}.cls-13{fill:#a9e3f8;}.cls-14{fill:#c6ecfa;}.cls-15{fill:#c1eafa;}.cls-16{fill:#252020;}.cls-17{fill:#241f20;}.cls-18{fill:#e81d24;}.cls-19{fill:#262020;}</style></defs><title>child7</title><rect class="cls-1" x="73.08" y="89.09" width="26.75" height="4.17" rx="2.08"/><path class="cls-2" d="M611.16,389.22a.46.46,0,0,1,.2,0c.09.31.17.63.26.95l-.46.27Z" transform="translate(-611.16 -318.73)"/><path class="cls-3" d="M724.33,393.79c-.8,4.42-1.34,8.9-2.45,13.24a46.2,46.2,0,0,1-11.39,20.91,30.84,30.84,0,0,1-15.7,8.95,40.37,40.37,0,0,1-8.69.76,3.8,3.8,0,0,0-.63-.26c-2.58-.6-5.18-1.11-7.74-1.8-1.84-.49-3.61-1.21-5.41-1.82a3.9,3.9,0,0,0-.59-.41,66.36,66.36,0,0,1-23.46-17,1.24,1.24,0,0,0-1.16-.06,12.56,12.56,0,0,1-6.88,1.83,11.85,11.85,0,0,1-10.82-8.37,11.73,11.73,0,0,1,5.1-13.51,11.52,11.52,0,0,1,8.66-1.49c.76.15,1-.19,1.17-.8s.1-1.26,1.06-1.34a39.07,39.07,0,0,0,14.34-4.13c3.34-1.67,6.43-3.72,8.35-7A68.21,68.21,0,0,0,676.15,358c.28-1.66.28-3.36.4-4.94,2.05,1.65,4,3.42,6.18,4.94,4,2.88,8.4,5.26,13.45,5.73a69.59,69.59,0,0,0,8,0c4.4-.13,8.8-.31,13-2.24,4.65,8.17,6.24,17.1,6.9,26.28Q724.23,390.77,724.33,393.79Zm-40.45,14.94h-2.34a12.58,12.58,0,0,0,9.53,10.57,19.13,19.13,0,0,0,10.94,0c4.84-1.39,9.07-6,9.49-10.54H683.88Zm17.85-16.63c0,2,0,4,0,6,0,1.81.87,2.67,2.64,2.68,1.16,0,2.33-.07,3.49,0,2.62.19,3.16-1.28,3.16-3.17,0-2.85,0-5.7,0-8.55a30.86,30.86,0,0,0-.12-3.6,2.18,2.18,0,0,0-2.38-2.05c-1.32,0-2.65,0-4,0-1.92,0-2.81.88-2.82,2.77S701.73,390.14,701.73,392.1Zm-6.8,0c0-2.08,0-4.17,0-6.25a2.29,2.29,0,0,0-2.39-2.44c-1.44,0-2.89,0-4.33,0a2.24,2.24,0,0,0-2.43,2.5q0,6.18,0,12.38c0,1.65.86,2.46,2.55,2.48h4c1.81,0,2.62-.82,2.63-2.66C694.94,396.14,694.93,394.13,694.93,392.13ZM645.71,413c-.93,0-1.56.09-2.19.09a4.3,4.3,0,0,1-3.67-2.64c-.57-1.83-.14-4,1.34-4.7,1.73-.82,1.95-2,1.76-3.62-.06-.56,0-1.13,0-1.69a2.16,2.16,0,0,0-2.11-2.26q-1.5-.08-3,0c-1.92.1-3.67,1.12-3.86,2.63a23.86,23.86,0,0,0-.25,6.89A10,10,0,0,0,644,415.92a11.49,11.49,0,0,0,2.47-.58Zm45.13-36.37a10.94,10.94,0,0,0-7.7,3.15c-.54.51-.77,1.2-.16,1.64a1.73,1.73,0,0,0,1.65,0,9,9,0,0,1,8.21-2.25c.38.08.9-.54,1.36-.84-.3-.45-.5-1.13-.9-1.3A11.61,11.61,0,0,0,690.84,376.59Zm11.77,1.15c.07,1.19.51,1.62,1.43,1.43a8.6,8.6,0,0,1,8.08,2.24,1.16,1.16,0,0,0,1.8,0c.56-.6.27-1.22-.24-1.68A10.71,10.71,0,0,0,703.59,377C703.18,377.06,702.85,377.54,702.61,377.74Z" transform="translate(-611.16 -318.73)"/><path class="cls-4" d="M724.11,387.77c-.66-9.18-2.25-18.11-6.9-26.28-4.19,1.93-8.59,2.11-13,2.24a69.59,69.59,0,0,1-8,0c-5-.47-9.4-2.85-13.45-5.73-2.15-1.52-4.13-3.29-6.18-4.94-.12,1.58-.12,3.28-.4,4.94a68.21,68.21,0,0,1-8.06,23.38c-1.92,3.31-5,5.36-8.35,7a39.07,39.07,0,0,1-14.34,4.13c-1,.08-.88.79-1.06,1.34s-.41.95-1.17.8a11.52,11.52,0,0,0-8.66,1.49c-.3-4.7-.84-9.39-.84-14.08a64.34,64.34,0,0,1,2.92-19c.11-.34.28-.66.42-1,.1-.11.26-.2.31-.33,1.07-2.81,2-5.67,3.22-8.41a22.26,22.26,0,0,1,3.35-6.05c3.15-3.51,6.69-6.67,10.08-9.95a2.17,2.17,0,0,1,.75-.29l-.32-.32c-12.4.84-20.63,12.54-17.52,24.93a16.34,16.34,0,0,1-7.32-8.87A18.22,18.22,0,0,1,644,328.38a17.92,17.92,0,0,1,15.16,4.8c.39.36.67.66,1.31.35a39.83,39.83,0,0,1,16.1-3.85,40.59,40.59,0,0,1,20.72,4.5c11.45,5.92,19.27,15.14,24,27.06a41.73,41.73,0,0,1,3,15.93c0,1.68.1,3.36.16,5,0,.76,0,1.52-.07,2.27C724.26,385.58,724.18,386.67,724.11,387.77Z" transform="translate(-611.16 -318.73)"/><path class="cls-5" d="M686.08,440.05c9.39-.24,18,5.94,21.11,12.74-18.22,6-36.08,5.21-53.65-2.46,2.65-5.55,6.85-8.94,12.84-10l5.44-.09a3.21,3.21,0,0,1,.46,1c.05,1.68,0,3.36,0,5a6.82,6.82,0,0,0,8.24,6.08,7.08,7.08,0,0,0,5.46-7.1C686,443.55,686.06,441.8,686.08,440.05Z" transform="translate(-611.16 -318.73)"/><path class="cls-6" d="M671.82,440.23l-5.44.09a7.64,7.64,0,0,0-1.49-.49c-5.68-.65-10.93-2.36-15.37-6.13a24.06,24.06,0,0,1-6.37-8.76c-1-2.27-1.95-4.57-2.92-6.85a12.56,12.56,0,0,0,6.88-1.83,1.24,1.24,0,0,1,1.16.06,66.36,66.36,0,0,0,23.46,17,3.9,3.9,0,0,1,.59.41c0,1.74,0,3.48-.05,5.22A4,4,0,0,1,671.82,440.23Z" transform="translate(-611.16 -318.73)"/><path class="cls-7" d="M671.82,440.23a4,4,0,0,0,.45-1.24c.06-1.74,0-3.48.05-5.22,1.8.61,3.57,1.33,5.41,1.82,2.56.69,5.16,1.2,7.74,1.8a3.8,3.8,0,0,1,.63.26c0,.8,0,1.6,0,2.4,0,1.75-.05,3.5-.06,5.25a7.08,7.08,0,0,1-5.46,7.1,6.82,6.82,0,0,1-8.24-6.08c-.05-1.68,0-3.36,0-5A3.21,3.21,0,0,0,671.82,440.23Z" transform="translate(-611.16 -318.73)"/><path class="cls-8" d="M636.88,361.77c-3.11-12.39,5.12-24.09,17.52-24.93l.32.32a2.17,2.17,0,0,0-.75.29c-3.39,3.28-6.93,6.44-10.08,9.95a22.26,22.26,0,0,0-3.35,6.05c-1.2,2.74-2.15,5.6-3.22,8.41-.05.13-.21.22-.31.33C637,362.05,636.93,361.91,636.88,361.77Z" transform="translate(-611.16 -318.73)"/><path class="cls-9" d="M724.11,387.77c.07-1.1.15-2.19.2-3.29,0-.75.05-1.51.07-2.27.06,1.15.16,2.28.18,3.43q0,3.53,0,7.06a4.74,4.74,0,0,1-.24,1.09Q724.22,390.78,724.11,387.77Z" transform="translate(-611.16 -318.73)"/><path class="cls-10" d="M713.19,450.22l.56-.28.08.17-.57.26Z" transform="translate(-611.16 -318.73)"/><path class="cls-11" d="M611.62,390.15c-.09-.32-.17-.64-.26-.95C611.45,389.51,611.53,389.83,611.62,390.15Z" transform="translate(-611.16 -318.73)"/><path class="cls-12" d="M652.34,319.39l-.71.26,0,0,.74-.23Z" transform="translate(-611.16 -318.73)"/><path class="cls-12" d="M649.93,320.59l-.5.21,0-.17.53-.05Z" transform="translate(-611.16 -318.73)"/><path class="cls-10" d="M716.86,448.45l.51-.21,0,.17-.52,0Z" transform="translate(-611.16 -318.73)"/><path class="cls-10" d="M715.21,449.44l-.74.23,0,0,.71-.26Z" transform="translate(-611.16 -318.73)"/><path class="cls-12" d="M653.47,318.81s0-.08,0-.08l.1,0s0,.08,0,.08A.29.29,0,0,1,653.47,318.81Z" transform="translate(-611.16 -318.73)"/><path class="cls-12" d="M650.63,320.09l.28-.2.08.14-.32.1Z" transform="translate(-611.16 -318.73)"/><path class="cls-13" d="M736.68,335.61s0,.08,0,.08l-.1,0s0-.08,0-.08Z" transform="translate(-611.16 -318.73)"/><path class="cls-13" d="M736.12,335.09l.09,0-.12.09s-.05-.06,0-.08S736.1,335.11,736.12,335.09Z" transform="translate(-611.16 -318.73)"/><path class="cls-13" d="M735.42,334.3l.22.27-.14.09-.12-.31Z" transform="translate(-611.16 -318.73)"/><path class="cls-13" d="M735.38,334.35l-.32-.12.08-.15.28.22Z" transform="translate(-611.16 -318.73)"/><path class="cls-14" d="M630.75,335h.07a.13.13,0,0,1,0,.09l-.12,0Z" transform="translate(-611.16 -318.73)"/><path class="cls-14" d="M631.62,334.12s.07,0,.09.05,0,.05,0,.08l-.15-.07Z" transform="translate(-611.16 -318.73)"/><path class="cls-14" d="M633.06,332.68a.25.25,0,0,1,.09,0s0,.06,0,.09l-.15-.07Z" transform="translate(-611.16 -318.73)"/><path class="cls-13" d="M733.53,332.6l-.16-.1s0-.08.07-.07a1.4,1.4,0,0,1,.17.09Z" transform="translate(-611.16 -318.73)"/><path class="cls-13" d="M732.69,331.76l.09,0,0,.13a.13.13,0,0,1-.09,0S732.69,331.79,732.69,331.76Z" transform="translate(-611.16 -318.73)"/><path class="cls-15" d="M736.31,433.76l0,.08-.09-.11s.06-.05.07,0S736.3,433.74,736.31,433.76Z" transform="translate(-611.16 -318.73)"/><path class="cls-15" d="M735.57,434.34l.09,0,0,.14a.18.18,0,0,1-.1,0S735.58,434.37,735.57,434.34Z" transform="translate(-611.16 -318.73)"/><path class="cls-15" d="M733.33,436.8l-.1,0,0-.14s.08,0,.11,0S733.32,436.78,733.33,436.8Z" transform="translate(-611.16 -318.73)"/><path class="cls-15" d="M732.62,437.47a.45.45,0,0,1,0-.13s.06,0,.09,0Z" transform="translate(-611.16 -318.73)"/><path class="cls-14" d="M634.11,331.8l-.07.05-.06-.11a.14.14,0,0,1,.09,0S634.1,331.77,634.11,331.8Z" transform="translate(-611.16 -318.73)"/><path class="cls-10" d="M716.17,449l-.29.2-.07-.14.31-.12Z" transform="translate(-611.16 -318.73)"/><path class="cls-12" d="M652.33,319.38l.11-.11-.1.12Z" transform="translate(-611.16 -318.73)"/><path class="cls-12" d="M650.67,320.13l-.14.1.1-.14Z" transform="translate(-611.16 -318.73)"/><path class="cls-12" d="M649.92,320.58l.12-.11-.11.12Z" transform="translate(-611.16 -318.73)"/><path class="cls-12" d="M651.63,319.65l-.14.1.1-.14Z" transform="translate(-611.16 -318.73)"/><path class="cls-10" d="M716.12,448.9l.15-.08a.71.71,0,0,0-.1.14Z" transform="translate(-611.16 -318.73)"/><path class="cls-10" d="M715.16,449.39l.15-.09a.71.71,0,0,0-.1.14Z" transform="translate(-611.16 -318.73)"/><path class="cls-10" d="M714.47,449.67l-.12.1.11-.12Z" transform="translate(-611.16 -318.73)"/><path class="cls-10" d="M716.88,448.46l-.12.11.1-.12Z" transform="translate(-611.16 -318.73)"/><path class="cls-16" d="M701.73,392.1c0-2,0-3.93,0-5.9s.9-2.76,2.82-2.77c1.32,0,2.65,0,4,0a2.18,2.18,0,0,1,2.38,2.05,30.86,30.86,0,0,1,.12,3.6c0,2.85,0,5.7,0,8.55,0,1.89-.54,3.36-3.16,3.17-1.16-.08-2.33,0-3.49,0-1.77,0-2.63-.87-2.64-2.68C701.72,396.12,701.73,394.11,701.73,392.1Z" transform="translate(-611.16 -318.73)"/><path class="cls-17" d="M694.93,392.13c0,2,0,4,0,6,0,1.84-.82,2.65-2.63,2.66h-4c-1.69,0-2.54-.83-2.55-2.48q0-6.19,0-12.38a2.24,2.24,0,0,1,2.43-2.5c1.44,0,2.89,0,4.33,0a2.29,2.29,0,0,1,2.39,2.44C695,388,694.93,390.05,694.93,392.13Z" transform="translate(-611.16 -318.73)"/><path class="cls-6" d="M691.07,419.3a12.58,12.58,0,0,1-9.53-10.57h2.34c-.08,2,.88,3.12,2.88,3.12h20.68c2,0,3-1.11,2.88-3.11h1.18c-.42,4.5-4.65,9.15-9.49,10.54A6.41,6.41,0,0,0,691.07,419.3Z" transform="translate(-611.16 -318.73)"/><path class="cls-7" d="M645.71,413l.75,2.38a11.49,11.49,0,0,1-2.47.58,10,10,0,0,1-10.27-8.26,23.86,23.86,0,0,1,.25-6.89c.19-1.51,1.94-2.53,3.86-2.63q1.5-.08,3,0a2.16,2.16,0,0,1,2.11,2.26c0,.56-.05,1.13,0,1.69.19,1.59,0,2.8-1.76,3.62-1.48.7-1.91,2.87-1.34,4.7a4.3,4.3,0,0,0,3.67,2.64C644.15,413.05,644.78,413,645.71,413Z" transform="translate(-611.16 -318.73)"/><path class="cls-18" d="M691.07,419.3a6.41,6.41,0,0,1,10.94,0A19.13,19.13,0,0,1,691.07,419.3Z" transform="translate(-611.16 -318.73)"/><path class="cls-19" d="M690.84,376.59a11.61,11.61,0,0,1,2.46.43c.4.17.6.85.9,1.3-.46.3-1,.92-1.36.84a9,9,0,0,0-8.21,2.25,1.73,1.73,0,0,1-1.65,0c-.61-.44-.38-1.13.16-1.64A10.94,10.94,0,0,1,690.84,376.59Z" transform="translate(-611.16 -318.73)"/><path class="cls-19" d="M702.61,377.74c.24-.2.57-.68,1-.77a10.71,10.71,0,0,1,10.09,2.75c.51.46.8,1.08.24,1.68a1.16,1.16,0,0,1-1.8,0,8.6,8.6,0,0,0-8.08-2.24C703.12,379.36,702.68,378.93,702.61,377.74Z" transform="translate(-611.16 -318.73)"/></svg>