<svg id="Layer_1" data-name="Layer 1" xmlns="http://www.w3.org/2000/svg" viewBox="0 0 228.37 195.03"><defs><style>.cls-1{fill:#739e6b;}.cls-2,.cls-4{fill:none;stroke-miterlimit:10;stroke-width:0.25px;}.cls-2{stroke:#cbdf7c;}.cls-3{fill:#acd591;}.cls-4{stroke:#009444;}.cls-5{fill:#be7e59;}.cls-6{fill:#9e563c;}.cls-7{fill:#6acff6;}.cls-8{fill:#8db982;}.cls-9{fill:#005b7f;}.cls-10{fill:#f2e790;}.cls-11{fill:#97583b;}.cls-12{fill:#ad693b;}.cls-13{fill:#a06135;}.cls-14{fill:#481413;}.cls-15{fill:#231f20;}.cls-16{fill:#ed1d24;}.cls-17{fill:#fff;}.cls-18{fill:#00aeef;}.cls-19{fill:#009cd7;}.cls-20{fill:#006e94;}.cls-21{fill:#dedfe0;}.cls-22{fill:#b77d49;}.cls-23{fill:#8c3c1f;}</style></defs><title>fatherHouse1</title><path class="cls-1" d="M852.24,465.61c-.46-.95,5.67-2.86,6.18-7.47.55-4.92-6-7-5.55-11.85.37-4.28,5.55-4.13,8.07-9.84,2.82-6.39-1.89-10.61,1.11-15.08,2.7-4,9.88-5.62,13.54-3,4.55,3.24,3.56,12.92-.22,18.54-3.09,4.57-6.71,4.51-7.79,8.64-1.26,4.83,3.11,7.17,2.11,11.41-1.71,7.25-16.74,10.11-17.45,8.66" transform="translate(-650.25 -310.45)"/><path class="cls-2" d="M867.88,422.77c4.19,3.69,2.23,13.21-2.1,18.42-3.53,4.24-7.14,3.81-8.62,7.81-1.75,4.68,2.36,7.45.94,11.57-2.43,7-.56,12.79-1.12,11.28" transform="translate(-650.25 -310.45)"/><path class="cls-3" d="M865.4,466.43c.37-1-5.93-2.27-6.9-6.81-1-4.83,5.23-7.56,4.32-12.35-.81-4.21-5.94-3.55-9-9-3.46-6.08.81-10.76-2.63-14.9-3.1-3.72-10.4-4.59-13.78-1.62-4.2,3.68-2.24,13.21,2.1,18.42,3.53,4.23,7.13,3.8,8.62,7.81,1.74,4.68-2.37,7.45-1,11.56,2.44,7,17.68,8.37,18.24,6.85" transform="translate(-650.25 -310.45)"/><path class="cls-4" d="M844.14,422.77c-4.2,3.69-2.23,13.21,2.1,18.42,3.53,4.24,7.13,3.81,8.62,7.81,1.74,4.68-2.37,7.45-1,11.57,2.44,7,17.69,8.36,18.24,6.85" transform="translate(-650.25 -310.45)"/><rect class="cls-5" x="192.33" y="148.38" width="33" height="5.92"/><polygon class="cls-5" points="218.8 180.74 199.31 180.74 194.16 152.12 223.39 152.12 218.8 180.74"/><polygon class="cls-6" points="55.3 190.27 49.98 190.27 49.98 163.7 62.83 163.7 55.3 190.27"/><path class="cls-7" d="M816.93,449.57H700.23V408.42a12.59,12.59,0,0,1,12.59-12.59h91.53a12.59,12.59,0,0,1,12.58,12.59Z" transform="translate(-650.25 -310.45)"/><rect class="cls-7" x="49.98" y="128.16" width="116.7" height="35.54"/><polygon class="cls-6" points="166.69 190.27 161.15 190.27 153.84 163.7 166.69 163.7 166.69 190.27"/><path class="cls-8" d="M771.94,464H751.13a26.48,26.48,0,0,1-26.29-29.63l5.36-30.9a17.41,17.41,0,0,1,17.29-15.34l29.67-.61a17.41,17.41,0,0,1,17.28,15.34l3.79,31.51A26.47,26.47,0,0,1,771.94,464" transform="translate(-650.25 -310.45)"/><path class="cls-9" d="M797.57,444.25c-3.16,10.92-12.18,19.77-25.8,19.77H750.94c-15.07-1.3-21.26-7.81-25.43-19.77,7.07,1,19.13,1.7,33.1,1.3,13.18-.36,28.22-.11,39-1.3" transform="translate(-650.25 -310.45)"/><path class="cls-10" d="M771.45,394.18a9.93,9.93,0,0,1-19.86,0,11.57,11.57,0,0,1,2.17-6.63l15.39.25a10.92,10.92,0,0,1,2.3,6.38" transform="translate(-650.25 -310.45)"/><path class="cls-11" d="M797.17,349.84a6.59,6.59,0,1,1-6.59-6.58,6.59,6.59,0,0,1,6.59,6.58" transform="translate(-650.25 -310.45)"/><path class="cls-11" d="M739,349.84a6.59,6.59,0,1,1-6.59-6.58,6.59,6.59,0,0,1,6.59,6.58" transform="translate(-650.25 -310.45)"/><path class="cls-11" d="M761.54,399.64h0a7.2,7.2,0,0,1-7.19-7.18v-18.2a7.19,7.19,0,1,1,14.37,0v18.2a7.2,7.2,0,0,1-7.18,7.18" transform="translate(-650.25 -310.45)"/><path class="cls-12" d="M729,353c0-33.34,15.81-42.5,31.55-42.5s31.68,9.93,31.68,42.5c0,15.74-15.94,28.5-31.68,28.5S729,368.69,729,353" transform="translate(-650.25 -310.45)"/><path class="cls-13" d="M792.26,353c0,15.73-15.94,28.51-31.67,28.51a31.25,31.25,0,0,1-3.48-.21c14.53-1.7,28.16-13.74,28.16-28.3,0-30.16-13.63-40.9-28.16-42.33,1.17-.11,2.31-.16,3.48-.16,15.73,0,31.67,9.91,31.67,42.49" transform="translate(-650.25 -310.45)"/><path class="cls-14" d="M792.26,356.49c0,15.72-15.94,28.51-31.67,28.51S729,372.21,729,356.49c0-.69,0-1.41,0-2.05.91,14,13.19,24.56,27.3,26.06,1.06.12,3.6-2.69,3.6-2.69s2.65,3.23,4.41,2.92c13.31-2.37,27-13,27.85-26.29,0,.64,0,1.36,0,2.05" transform="translate(-650.25 -310.45)"/><path class="cls-15" d="M749.49,351.36h0a3.31,3.31,0,0,1-3.28-3.3v-5.91a3.29,3.29,0,1,1,6.58,0v5.91a3.31,3.31,0,0,1-3.3,3.3" transform="translate(-650.25 -310.45)"/><path class="cls-15" d="M765.92,351.36h0a3.31,3.31,0,0,1-3.29-3.3v-5.91a3.3,3.3,0,0,1,6.59,0v5.91a3.31,3.31,0,0,1-3.3,3.3" transform="translate(-650.25 -310.45)"/><path class="cls-15" d="M772,362.15a12.85,12.85,0,0,1-8.78,9.64,6,6,0,0,0-10.06,0,11.81,11.81,0,0,1-8.74-9.69Z" transform="translate(-650.25 -310.45)"/><path class="cls-16" d="M763.21,371.79a17.27,17.27,0,0,1-5,.69,18.74,18.74,0,0,1-5.05-.64,6,6,0,0,1,10.06,0" transform="translate(-650.25 -310.45)"/><path class="cls-17" d="M770.85,362.59a2.39,2.39,0,0,1-2.38,2.38H748.94a2.4,2.4,0,0,1-2.4-2.38,1.68,1.68,0,0,1,.05-.45H770.8a2.22,2.22,0,0,1,.05.45" transform="translate(-650.25 -310.45)"/><path class="cls-15" d="M744.54,339a1.21,1.21,0,0,1-1.16-.32,1.23,1.23,0,0,1,0-1.73,12,12,0,0,1,5.2-3.1,12.17,12.17,0,0,1,6.25-.12,1.23,1.23,0,0,1-.59,2.38,9.45,9.45,0,0,0-5,.09,9.58,9.58,0,0,0-4.13,2.47,1.22,1.22,0,0,1-.58.33" transform="translate(-650.25 -310.45)"/><path class="cls-15" d="M763.21,336.43a1.25,1.25,0,0,1-.88-.82,1.24,1.24,0,0,1,.79-1.54,12,12,0,0,1,11.64,2.44,1.22,1.22,0,1,1-1.62,1.83,9.48,9.48,0,0,0-4.46-2.22,9.62,9.62,0,0,0-4.81.28,1.24,1.24,0,0,1-.66,0" transform="translate(-650.25 -310.45)"/><path class="cls-14" d="M773.62,313.12a21.37,21.37,0,0,1-4.39,2.14c-4.73,1.8-14.56,1.34-17.63-.37-.8-.45-2.19-2-2.17-2.64a32.21,32.21,0,0,1,11.92-1.8,30.62,30.62,0,0,1,12.27,2.67" transform="translate(-650.25 -310.45)"/><path class="cls-14" d="M776.41,314.6s5.09,3.19,7.6,6.85,4.94,7.8,6,11.6a91.33,91.33,0,0,1,1.79,10.72,26.31,26.31,0,0,1-8-8.81c-3.14-5.72-5.67-11.52-6-13s-1.33-7.35-1.33-7.35" transform="translate(-650.25 -310.45)"/><path class="cls-14" d="M745,314.29s-4.76,2.66-7.26,6.32a53.12,53.12,0,0,0-3.47,5.34,34.6,34.6,0,0,0-3,7.86c-.55,2.45-1.3,6.08-1.3,6.08a61.14,61.14,0,0,1,4.31-9.3c3.14-5.73,5.2-9.3,7.55-13.17.31-.51,3.17-3.13,3.17-3.13" transform="translate(-650.25 -310.45)"/><path class="cls-8" d="M802.56,416.35h0a6.07,6.07,0,0,0,.49-8.55l-13.73-15.43a6.06,6.06,0,1,0-9.05,8.05L794,415.85a6.08,6.08,0,0,0,8.55.5" transform="translate(-650.25 -310.45)"/><path class="cls-18" d="M816.93,480.79H700.23V456.21s52.95,2.66,60,2.66c22.12,0,56.69-2.66,56.69-2.66Z" transform="translate(-650.25 -310.45)"/><path class="cls-19" d="M816.92,456.55v12.3s-34.57,2.66-56.68,2.66c-7.06,0-60-2.66-60-2.66v-12.3s52.94,2.65,60,2.65c22.11,0,56.68-2.65,56.68-2.65" transform="translate(-650.25 -310.45)"/><rect class="cls-6" x="49.98" y="168.35" width="116.7" height="3.99"/><path class="cls-20" d="M772.13,505.23h0a5.6,5.6,0,0,1-5.6-5.61V456.35a5.61,5.61,0,0,1,3.47-5.19l6.49-2.66a5.61,5.61,0,0,1,7.68,6l-6.48,45.94a5.61,5.61,0,0,1-5.56,4.82" transform="translate(-650.25 -310.45)"/><path class="cls-20" d="M750.94,505.23h0a5.61,5.61,0,0,0,5.61-5.61V456.35a5.62,5.62,0,0,0-3.48-5.19l-6.49-2.66a5.61,5.61,0,0,0-7.68,6l6.48,45.94a5.61,5.61,0,0,0,5.56,4.82" transform="translate(-650.25 -310.45)"/><path class="cls-21" d="M757.74,503.64c0,2.35-8.17,1.78-8.17,1.78s-7.72.57-7.72-1.78,3.56-4.26,7.95-4.26,7.94,1.9,7.94,4.26" transform="translate(-650.25 -310.45)"/><path class="cls-11" d="M755.85,502.62c0,1.52-6.23,1.16-6.23,1.16s-5.87.36-5.87-1.16,2.71-2.76,6-2.76,6.05,1.24,6.05,2.76" transform="translate(-650.25 -310.45)"/><path class="cls-21" d="M779.43,503.64c0,2.35-8.17,1.78-8.17,1.78s-7.71.57-7.71-1.78,3.56-4.26,7.94-4.26,7.94,1.9,7.94,4.26" transform="translate(-650.25 -310.45)"/><path class="cls-11" d="M778,502.62c0,1.52-6.22,1.16-6.22,1.16s-5.88.36-5.88-1.16,2.71-2.76,6.06-2.76,6,1.24,6,2.76" transform="translate(-650.25 -310.45)"/><path class="cls-22" d="M753.62,501.42h.72a1,1,0,1,1,0,2h-.72a1,1,0,1,1,0-2" transform="translate(-650.25 -310.45)"/><path class="cls-22" d="M751.22,501.84h.57a.81.81,0,1,1,0,1.62h-.57a.81.81,0,0,1,0-1.62" transform="translate(-650.25 -310.45)"/><path class="cls-22" d="M749,501.84h.57a.81.81,0,0,1,0,1.62H749a.81.81,0,1,1,0-1.62" transform="translate(-650.25 -310.45)"/><path class="cls-22" d="M746.85,501.84h.57a.81.81,0,0,1,0,1.62h-.57a.81.81,0,0,1,0-1.62" transform="translate(-650.25 -310.45)"/><path class="cls-22" d="M744.93,502.16h.46a.65.65,0,1,1,0,1.29h-.46a.65.65,0,1,1,0-1.29" transform="translate(-650.25 -310.45)"/><path class="cls-22" d="M768.1,503.45h-.72a1,1,0,0,1,0-2h.72a1,1,0,1,1,0,2" transform="translate(-650.25 -310.45)"/><path class="cls-22" d="M770.5,503.45h-.57a.81.81,0,1,1,0-1.61h.57a.81.81,0,1,1,0,1.61" transform="translate(-650.25 -310.45)"/><path class="cls-22" d="M772.69,503.45h-.57a.81.81,0,1,1,0-1.61h.57a.81.81,0,1,1,0,1.61" transform="translate(-650.25 -310.45)"/><path class="cls-22" d="M774.88,503.45h-.57a.81.81,0,1,1,0-1.61h.57a.81.81,0,1,1,0,1.61" transform="translate(-650.25 -310.45)"/><path class="cls-22" d="M776.79,503.45h-.46a.65.65,0,0,1,0-1.29h.46a.65.65,0,1,1,0,1.29" transform="translate(-650.25 -310.45)"/><path class="cls-18" d="M710.86,438.61A12.62,12.62,0,1,1,698.24,426a12.62,12.62,0,0,1,12.62,12.62" transform="translate(-650.25 -310.45)"/><rect class="cls-18" x="49.98" y="126.94" width="10.63" height="41.41"/><path class="cls-18" d="M831.32,438.61A12.62,12.62,0,1,1,818.7,426a12.62,12.62,0,0,1,12.62,12.62" transform="translate(-650.25 -310.45)"/><rect class="cls-18" x="155.84" y="126.94" width="10.63" height="41.41"/><path class="cls-7" d="M703.44,438.61a6.09,6.09,0,1,1-6.09-6.09,6.09,6.09,0,0,1,6.09,6.09" transform="translate(-650.25 -310.45)"/><path class="cls-7" d="M824.79,438.61a6.09,6.09,0,1,1-6.09-6.09,6.09,6.09,0,0,1,6.09,6.09" transform="translate(-650.25 -310.45)"/><path class="cls-11" d="M725.34,408.66h0a4.94,4.94,0,0,1-.52,6.94l-22,15.78a2.61,2.61,0,0,1-3.39-3.95l18.93-19.29a4.93,4.93,0,0,1,6.94.52" transform="translate(-650.25 -310.45)"/><path class="cls-11" d="M698,437.17a2.79,2.79,0,0,1-1.37-3.28l1.17-3.86a4,4,0,1,1,7.69,2.33l-1.31,4.31a2.79,2.79,0,0,1-4,1.66Z" transform="translate(-650.25 -310.45)"/><path class="cls-11" d="M704.38,430.94h0a1.1,1.1,0,0,1,1.39.73l.86,2.72a1.12,1.12,0,1,1-2.13.67l-.86-2.72a1.13,1.13,0,0,1,.74-1.4" transform="translate(-650.25 -310.45)"/><path class="cls-11" d="M802.06,408.5h0a5,5,0,0,0-7-.22l-18,20.17a2.61,2.61,0,0,0,3.56,3.78l21.19-16.77a5,5,0,0,0,.22-7" transform="translate(-650.25 -310.45)"/><path class="cls-11" d="M770.81,432.71a2.79,2.79,0,0,0,3.12,1.71l4-.76a4,4,0,1,0-1.5-7.89l-4.43.84a2.8,2.8,0,0,0-2.07,3.78Z" transform="translate(-650.25 -310.45)"/><path class="cls-11" d="M777.68,427h0a1.11,1.11,0,0,0-.57-1.47l-2.62-1.14a1.11,1.11,0,1,0-.89,2l2.62,1.14a1.1,1.1,0,0,0,1.46-.57" transform="translate(-650.25 -310.45)"/><path class="cls-8" d="M726.37,417.43l-10.15-7.88,22-18.62a7.74,7.74,0,1,1,9.21,12.45Z" transform="translate(-650.25 -310.45)"/><rect class="cls-6" y="146.34" width="48" height="2.6"/><rect class="cls-6" x="22.7" y="148.94" width="2.6" height="41.33"/><path class="cls-23" d="M666.74,459.39s-1.24,15.91-4.45,18.92c-2.86,2.69-4.3,22.41-4.3,22.41h15V459.39Z" transform="translate(-650.25 -310.45)"/><path class="cls-23" d="M681.58,459.39s.19,15.91,3.4,18.92c2.87,2.69,5.51,22.41,5.51,22.41h-15V459.39Z" transform="translate(-650.25 -310.45)"/></svg>