<svg id="Layer_1" data-name="Layer 1" xmlns="http://www.w3.org/2000/svg" viewBox="0 0 228.39 89.82"><defs><style>.cls-1{fill:#c4dae5;}.cls-2{fill:#19719c;}.cls-3{fill:#1b729d;}.cls-4{fill:#1d739e;}.cls-5{fill:#1a719d;}.cls-6{fill:#1f749f;}.cls-7{fill:#f49420;}.cls-8{fill:#fbd347;}.cls-9{fill:#1e739d;}</style></defs><title>logo2</title><path class="cls-1" d="M797.5,353.61l.28,0v27l-.1,0h-.11c0-1.24,0-2.49,0-3.73Q797.53,365.22,797.5,353.61Z" transform="translate(-569.39 -339.35)"/><path class="cls-2" d="M797.5,353.61q0,11.61,0,23.22c0,1.24,0,2.49,0,3.73-2.46.24-4.91.51-7.38.7-6.43.52-12.87,1-19.3,1.51a2.1,2.1,0,0,0-1.12.56c-1.95,1.77-3.87,3.57-6,5.57v-5.55l-5.63.38v-27l6.15-.58c.36,0,.72,0,1.08,0q14.14-1.08,28.29-2.2c1.21-.09,2.41-.33,3.61-.5Z" transform="translate(-569.39 -339.35)"/><path class="cls-3" d="M569.39,389.18H587.6a15.5,15.5,0,0,1,9,2.52c4.58,3.14,5.59,11.32,1.35,14.77-.74.61-1.56,1.11-2.41,1.71a9.35,9.35,0,0,1,5.46,5.16c2.76,6.29-.76,12.84-7.77,14.37a24.87,24.87,0,0,1-5,.62c-6,.08-12,0-18,0-.24,0-.47,0-.79-.06Zm6.24,21.95v11.33c4.08,0,8.08.1,12.08,0a13.58,13.58,0,0,0,4.76-1c3.68-1.55,4.16-5.84,1.07-8.38a8.06,8.06,0,0,0-4.84-1.91c-4.2-.13-8.41-.11-12.61-.14A2.09,2.09,0,0,0,575.63,411.13Zm-.07-5.84c.31,0,.5.06.69.06,4,0,8,0,12,0a9.8,9.8,0,0,0,2.93-.55,4.35,4.35,0,0,0,3.1-4.93,5.74,5.74,0,0,0-5.42-4.8c-4.35-.22-8.72-.1-13.08-.12-.06,0-.12.09-.21.16,0,.22,0,.46,0,.69Z" transform="translate(-569.39 -339.35)"/><path class="cls-4" d="M675.45,428.3h-5.82v-1.45c0-5,.07-10-.21-15a6.14,6.14,0,0,0-7.3-6,6.53,6.53,0,0,0-5.44,6.32c-.17,4.28-.09,8.58-.11,12.87,0,1.07,0,2.15,0,3.28h-5.72V400.72h5.3l.41,3.38c2.22-3.16,5.23-4.07,8.69-3.82a8.47,8.47,0,0,1,7.65,5.29c.24-.33.46-.59.64-.88,4-6.31,14.65-5.43,18.16-.27a12.9,12.9,0,0,1,2.31,7.22c.06,5.38,0,10.75,0,16.13a4.59,4.59,0,0,1-.08.53h-5.74v-2.55c0-4.13,0-8.26,0-12.4a12.54,12.54,0,0,0-.17-2c-.61-3.55-2.63-5.47-5.74-5.52a6.47,6.47,0,0,0-6.59,5.37,13.19,13.19,0,0,0-.25,2.51c0,4.41,0,8.82,0,13.24Z" transform="translate(-569.39 -339.35)"/><path class="cls-4" d="M777.87,400.81v27.47h-5.51c-.09-1.25-.19-2.51-.28-3.76-.13,0-.24-.06-.26,0-3.14,4.2-7.47,5.16-12.32,4.34-5.18-.89-8.82-3.86-10.29-8.95-1.6-5.54-1.2-10.9,2.81-15.48,4.63-5.27,14.29-5.76,18.85-1,.35.36.67.76,1.15,1.31.09-1.4.17-2.61.26-3.9Zm-5.82,13.74a8.91,8.91,0,1,0-17.81-.07c0,5.34,3.68,9.16,8.87,9.17S772,419.88,772.05,414.55Z" transform="translate(-569.39 -339.35)"/><path class="cls-5" d="M639.81,428.22l-.3-4.05a10.86,10.86,0,0,1-6.17,4.44,13.51,13.51,0,0,1-17.4-12.3c-.25-4.08.35-7.9,2.94-11.22,3.71-4.77,11.61-6.5,16.89-3.58a28.94,28.94,0,0,1,3.75,2.93l.18-3.66h5.58v27.44Zm-18.1-13.77c0,5.37,3.63,9.19,8.82,9.2a8.72,8.72,0,0,0,9-9.07,8.82,8.82,0,0,0-8.92-9.19A8.72,8.72,0,0,0,621.71,414.45Z" transform="translate(-569.39 -339.35)"/><path class="cls-6" d="M720.18,428.38l-.34-3.76a5.83,5.83,0,0,0-.71.54,11.81,11.81,0,0,1-12.84,3c-4.67-1.53-7.06-5.27-7.36-9.92-.36-5.74-.08-11.53-.08-17.38h5.7v1.23c0,4.66,0,9.31,0,14,0,3,1.15,5.45,4,6.7a7.37,7.37,0,0,0,8.22-1.11,7.5,7.5,0,0,0,2.71-5.69c.1-4.57.07-9.15.09-13.72v-1.39h5.74v27.57Z" transform="translate(-569.39 -339.35)"/><path class="cls-3" d="M746.81,422.53l1.68,4.88a12.68,12.68,0,0,1-7.71,1.17c-4.71-.69-7.23-3.89-7.29-9.19,0-4.09,0-8.19,0-12.28v-1.24h-5.2v-5.05h5.16v-7.39l5.9-.65v8h8v5.08h-8v4.05c0,2.93,0,5.85,0,8.78,0,4,2.26,5.63,6,4.41C745.8,422.91,746.24,422.74,746.81,422.53Z" transform="translate(-569.39 -339.35)"/><path class="cls-7" d="M797.25,353.48c-1.2.17-2.4.41-3.61.5q-14.14,1.13-28.29,2.2c-.36,0-.72,0-1.08,0V345.86l7.65,1.76a11.12,11.12,0,0,0,1.29.18,1.8,1.8,0,0,0,.4.23q9.57,2.28,19.15,4.54c1.41.33,2.84.55,4.26.82Z" transform="translate(-569.39 -339.35)"/><path class="cls-5" d="M606.43,400.63H612V428.3h-5.6Z" transform="translate(-569.39 -339.35)"/><path class="cls-8" d="M797,353.39c-1.42-.27-2.85-.49-4.26-.82q-9.59-2.25-19.15-4.54a1.8,1.8,0,0,1-.4-.23v-7.15l9.32,4.84,14.27,7.7Z" transform="translate(-569.39 -339.35)"/><path class="cls-9" d="M796.8,353.19l-14.27-7.7c0-2,.05-4.09.07-6.14l8.43,8c1.59,1.51,3.18,3,4.74,4.57A12.69,12.69,0,0,1,796.8,353.19Z" transform="translate(-569.39 -339.35)"/><path class="cls-4" d="M612.84,392.72a3.36,3.36,0,0,1-3.57,3.52,3.58,3.58,0,1,1,3.57-3.52Z" transform="translate(-569.39 -339.35)"/></svg>