<svg id="Layer_1" data-name="Layer 1" xmlns="http://www.w3.org/2000/svg" viewBox="0 0 184.53 469.06"><defs><style>.cls-1{fill:#aa693d;}.cls-2{fill:#4daece;}.cls-3{fill:#5e386a;}.cls-4{fill:#252020;}.cls-5{fill:#aa6a3e;}.cls-6{fill:#9a5f36;}.cls-7{fill:#61594e;}.cls-8{fill:#573560;}.cls-9{fill:#8d5a33;}.cls-10{fill:#945a3d;}.cls-11{fill:#7d7366;}.cls-12{fill:#f5eee5;}.cls-13{fill:#28201e;}.cls-14{fill:#25201f;}.cls-15{fill:#281e1d;}.cls-16{fill:#97593b;}.cls-17{fill:#2c211c;}.cls-18{fill:#2a201c;}.cls-19{fill:#da2429;}.cls-20{fill:#411902;}.cls-21{fill:#a86a3f;}.cls-22{fill:#049ab4;}.cls-23{fill:#e9f0e8;}.cls-24{fill:#fff;}</style></defs><title>pic3</title><path class="cls-1" d="M779.84,222.37c1.72,17.55-.14,34.5-9.37,49.91-11.66,19.48-29.77,30.12-51,36.16-1.43.41-2.88.73-4.32,1.09-7.85.3-15.73,1.11-23.54.7-4.62-.24-9.14-2.39-13.71-3.69-15.67-6.7-29-16.66-40.72-28.88-16.12,7.08-28,4.16-32.92-8-4.56-11.21.92-22.85,12.83-27.29,5.87-5.32,8.35,2.5,13,3.45.33-3.08.55-6,1-9,1.42-9.82,2.25-20.07,8.52-28.17,8.52-11,17.61-21.65,27-31.92,3.49-3.8,8.44-6.4,14.38-5.36a39.28,39.28,0,0,0,10.41.7c17.16-1.63,34.31-3.49,51.45-5.38,4.36-.48,8,.3,11.38,3.43,7.27,6.79,13.29,14.53,16.73,23.82S776.9,212.89,779.84,222.37ZM744,263.56l-45.23,0-4.37.34c1.88,9.8,7.78,15.36,16.43,18.45,6.22,1.26,12.52,4.24,18.43-.9,6.54.94,15.78-9.06,16.81-16.37C746.11,264.65,744.71,264.06,744,263.56Zm-13-18c1.64,4.53,5.27,5.78,9.51,5.2,4.78-.65,8-3.58,8.35-8.48a161.7,161.7,0,0,0,0-18.42,8.34,8.34,0,0,0-7.31-8.26c-4.39-.73-8.77-.41-10.58,4.9-.55.89-1.56,1.78-1.56,2.67,0,3.26.35,6.52.59,9.78C730.3,237.14,730.63,241.35,731,245.55ZM708,233.48c0-3.17.07-6.33,0-9.5-.14-5.38-3.64-8.7-9.27-8.92-4.43-.18-9.35,3.92-9.53,8.49-.25,6.32-.27,12.67,0,19,.24,4.8,5.33,8.83,10.09,8.59A9,9,0,0,0,708,242C708.08,239.14,708,236.31,708,233.48ZM627.9,255.11c-.42-4-1.15-6.91-4.94-7.37s-8.14-1.22-10.65,3.15c-6.75,11.76,2.56,27.71,16.14,27.51,1.47,0,2.91-1.4,4.37-2.15-1.29-.92-2.59-2.63-3.86-2.6-4.07.08-6.76-2.08-7.3-5.44-.37-2.27,1.44-5,2.6-7.37A54.77,54.77,0,0,1,627.9,255.11Zm84.93-44.9c.67-.61,2.91-1.79,2.83-2.79a5.71,5.71,0,0,0-3-4.18c-8.2-3.09-22.69,1.22-28.25,8.34-.87,1.11-.48,3.2-.67,4.83,1.63,0,3.84.66,4.81-.16C695.4,210.55,702.93,208.09,712.83,210.21Zm20.89-8.56c-2,.32-4.65.28-6.85,1.25-1.76.78-3,2.81-4.41,4.29,1.78.77,3.79,2.5,5.31,2.15,8.24-1.88,15.35,0,22.13,4.78,1.24.87,3.71,0,5.62-.06-.52-1.73-.52-4-1.65-5.09C748.41,203.8,741.42,202.32,733.72,201.65Z" transform="translate(-602.62 -136.19)"/><path class="cls-2" d="M647.59,388.24c1.7-13.31,3.61-26.6,5-39.93a29,29,0,0,1,25.14-25.71c.26,2,.41,3.95.79,5.9,2.57,13.13,17,17.64,27,12.06,6.9-3.86,10.36-9.91,9.63-18,15.54,1.85,24,11.77,27.13,25.93,3.65,16.41,6.27,33.08,8.58,49.75a329.51,329.51,0,0,1,2.93,36.46c.18,7-.67,14.41-7.79,18.77l-10,1.15-2-.55c.43-2.48.8-4.7,1.28-7.48-6-.68-11.25-1.06-16.4-2a5.89,5.89,0,0,1-3.73-3.33c-3.36-9.65-6.5-19.38-9.53-29.14-2.42-7.77-4.6-15.62-6.88-23.43.7-1.34,2.22-2.87,2-4-1.85-8.05-3.19-16.38-6.36-23.93-4.79-11.44-12.74-13.95-23.84-11.85-9,1.7-16.11,11.58-14.31,21.07,2,10.48,5.63,20.64,8.62,31.18l6.24-1.78a8.39,8.39,0,0,1,1.68,1.75c6.82,13.17,13.72,26.3,20.31,39.59,2.47,5,6.69,9.45,6,15.7-17.77.71-35-2.38-51.86-7.67-.16-.89-.31-1.78-.46-2.66l-1.11-9.74,1-22.64Q647.08,401,647.59,388.24Z" transform="translate(-602.62 -136.19)"/><path class="cls-3" d="M647.21,448.73c16.88,5.29,34.09,8.38,51.86,7.67,1.38,1.17,3,2.13,4.11,3.53,7.06,9.21,13.86,18.74,27.71,16.53l5,.35c-1.15,2.5-2.1,4.38-2.89,6.33-4.38,10.71-8.3,21.64-13.23,32.09-2.63,5.58-4.87,12.86-13.74,11.63-.11,0-.29.5-.29.5l4.25,3.18-8.13,5-10.78-.78c-.7-.76-1.29-2-2.13-2.2-12.53-3-25.09-5.84-37.65-8.72-4.83-1.12-6-5-6.18-9.07-.3-8.35-.35-16.74,0-25.09C645.58,476.05,646.47,462.39,647.21,448.73Z" transform="translate(-602.62 -136.19)"/><path class="cls-4" d="M779.84,222.37c-2.94-9.48-5.47-19.11-8.91-28.4s-9.46-17-16.73-23.82c-3.35-3.13-7-3.91-11.38-3.43-17.14,1.89-34.29,3.75-51.45,5.38a39.28,39.28,0,0,1-10.41-.7c-5.94-1-10.89,1.56-14.38,5.36-9.43,10.27-18.52,20.9-27,31.92-6.27,8.1-7.1,18.35-8.52,28.17-.42,2.93-.64,5.88-1,9-4.65-.95-7.13-8.77-13-3.45-3.22-15.44-1.19-30.82,1.46-46,4.32-24.7,19.4-41,42.1-50.77,15.19-6.54,30.88-10.72,47.55-9.05a78.38,78.38,0,0,1,42.38,17.49c15.48,12.57,26.45,28,28.81,48.39C780.11,209,779.7,215.72,779.84,222.37Z" transform="translate(-602.62 -136.19)"/><path class="cls-5" d="M651.28,523.88c12.56,2.88,25.12,5.73,37.65,8.72.84.2,1.43,1.44,2.13,2.2l-30.39,34.81-12.85,4.92a12.77,12.77,0,0,0-2.14-1.17c-8.39-2.73-12.88-8.27-12.7-17.31a7.68,7.68,0,0,0-.94-2.56Q641.67,538.68,651.28,523.88Z" transform="translate(-602.62 -136.19)"/><path class="cls-6" d="M701.84,535.58l8.13-5.05c6.52-1.69,13-3.33,19.55-5.11,2.91-.79,5.74-1.85,8.61-2.78l11.79,28.74c1.69,4.1,3.4,8.18,5.1,12.28-.64.89-1.07,2.1-1.93,2.63-6.85,4.16-14,7.85-20.58,12.38-3.85,2.66-5.1,1.13-6.36-2.13Q714,556.05,701.84,535.58Z" transform="translate(-602.62 -136.19)"/><path class="cls-7" d="M726.15,576.54c1.26,3.26,2.51,4.79,6.36,2.13,6.58-4.53,13.73-8.22,20.58-12.38.86-.53,1.29-1.74,1.93-2.63l3,.16c-2.29,5.84.31,13.19,5,15.14-1.25-4.59-2.57-9.44-3.88-14.29,5.93-7.91,16-7.78,21.82.43,2.19,3.07,3.91,6.47,6.16,10.25l-48.55,28.29c-4.64-7.74-9.31-15.32-13.68-23.07C724.45,579.72,725.7,577.9,726.15,576.54Zm42.52-.06.9-1.48c-2-4.3-3.91-8.59-6-13.26C762,568,764.54,572.5,768.67,576.48Z" transform="translate(-602.62 -136.19)"/><path class="cls-8" d="M738.13,522.64c-2.87.93-5.7,2-8.61,2.78-6.5,1.78-13,3.42-19.55,5.11l-4.25-3.17s.18-.51.29-.5c8.87,1.23,11.11-6.05,13.74-11.63,4.93-10.45,8.85-21.38,13.23-32.09.79-1.95,1.74-3.83,2.89-6.33l-5-.35,4.1-4c.4.51.81,1,1.21,1.54l.32-.33L735,472.49c6.41-7.55,6.61-10.81,1.07-17.9l10-1.15c.62,18.73,1.08,37.48,1.93,56.21C748.32,517.91,746.68,520.55,738.13,522.64Z" transform="translate(-602.62 -136.19)"/><path class="cls-9" d="M647.59,388.24q-.5,12.72-1,25.43c-.51,4.51,1.32,9.69-3.8,13-.48.31-.37,2.1,0,3,.81,2.28,1.9,4.45,2.89,6.67l1.11,9.74h-4.44c-.33,4.34-1.22,8.57-6,10.3-3.5,1.26-14.43-1.93-16.57-4.86a7.91,7.91,0,0,1-1.83-4.48c.35-7.89.22-15.94,5-22.88Z" transform="translate(-602.62 -136.19)"/><path class="cls-10" d="M715.16,322.53c.73,8.12-2.73,14.17-9.63,18-10,5.58-24.4,1.07-27-12.06-.38-1.95-.53-3.94-.79-5.9l.09-16.06c4.57,1.3,9.09,3.45,13.71,3.69,7.81.41,15.69-.4,23.54-.7Q715.14,316,715.16,322.53Z" transform="translate(-602.62 -136.19)"/><path class="cls-11" d="M647.82,574.53l12.85-4.92c1.05,1.23,2.1,2.45,3.14,3.68l-5.46,1c.17.62.34,1.24.52,1.86l5.58-2.23,4.63,3.52,0-.08-7.87,3.48-2.51,3.65,1.18.77c.9-1.07,1.79-2.14,2.69-3.2,2.56-2.3,6-4,8.35-1.2,1.83,2.09,3.06,6.24,2.26,8.74-1.68,5.28-4.87,10.08-7.72,15.63l-47-32.75L632,554.34c0,2.65-.17,5.3,0,7.94C632.47,570.12,641.13,576.79,647.82,574.53Zm2.43,9.72,1.87,1.18,4.5-6.78-1.57-1Zm9.26,1.28-1.3-.8q-1.31,2-2.62,4.08l1.4.86Z" transform="translate(-602.62 -136.19)"/><path class="cls-12" d="M647.82,574.53c-6.69,2.26-15.35-4.41-15.81-12.25-.15-2.64,0-5.29,0-7.94a1.63,1.63,0,0,1,0-.85,7.68,7.68,0,0,1,.94,2.56c-.18,9,4.31,14.58,12.7,17.31A12.77,12.77,0,0,1,647.82,574.53Z" transform="translate(-602.62 -136.19)"/><polygon class="cls-11" points="66.46 441.27 66.52 441.41 66.43 441.2 66.46 441.27"/><path class="cls-13" d="M708,233.48c0,2.83.06,5.66,0,8.49a9,9,0,0,1-8.66,9.15c-4.76.24-9.85-3.79-10.09-8.59-.32-6.31-.3-12.66,0-19,.18-4.57,5.1-8.67,9.53-8.49,5.63.22,9.13,3.54,9.27,8.92C708.09,227.15,708,230.31,708,233.48Z" transform="translate(-602.62 -136.19)"/><path class="cls-14" d="M731,220.49c1.81-5.31,6.19-5.63,10.58-4.9a8.34,8.34,0,0,1,7.31,8.26,161.7,161.7,0,0,1,0,18.42c-.31,4.9-3.57,7.83-8.35,8.48-4.24.58-7.87-.67-9.51-5.2Q731,233,731,220.49Z" transform="translate(-602.62 -136.19)"/><path class="cls-15" d="M710.82,282.31c-8.65-3.09-14.55-8.65-16.43-18.45l4.37-.34c-.5,4.42,1.83,6,5.89,6q16.71,0,33.43,0c4,0,6.37-1.52,5.91-5.92.72.5,2.12,1.09,2.07,1.48-1,7.31-10.27,17.31-16.81,16.37C726.18,274.64,714.61,274.7,710.82,282.31Z" transform="translate(-602.62 -136.19)"/><path class="cls-16" d="M627.9,255.11a54.77,54.77,0,0,0-3.64,5.73c-1.16,2.37-3,5.1-2.6,7.37.54,3.36,3.23,5.52,7.3,5.44,1.27,0,2.57,1.68,3.86,2.6-1.46.75-2.9,2.13-4.37,2.15-13.58.2-22.89-15.75-16.14-27.51,2.51-4.37,6.8-3.61,10.65-3.15S627.48,251.15,627.9,255.11Z" transform="translate(-602.62 -136.19)"/><path class="cls-17" d="M712.83,210.21c-9.9-2.12-17.43.34-24.24,6-1,.82-3.18.14-4.81.16.19-1.63-.2-3.72.67-4.83,5.56-7.12,20-11.43,28.25-8.34a5.71,5.71,0,0,1,3,4.18C715.74,208.42,713.5,209.6,712.83,210.21Z" transform="translate(-602.62 -136.19)"/><path class="cls-18" d="M733.72,201.65c7.7.67,14.69,2.15,20.15,7.32,1.13,1.08,1.13,3.36,1.65,5.09-1.91.06-4.38.93-5.62.06-6.78-4.76-13.89-6.66-22.13-4.78-1.52.35-3.53-1.38-5.31-2.15,1.45-1.48,2.65-3.51,4.41-4.29C729.07,201.93,731.72,202,733.72,201.65Z" transform="translate(-602.62 -136.19)"/><path class="cls-19" d="M710.82,282.31c3.79-7.61,15.36-7.67,18.43-.9C723.34,286.55,717,283.57,710.82,282.31Z" transform="translate(-602.62 -136.19)"/><path class="cls-20" d="M731,220.49q0,12.52,0,25.06c-.32-4.2-.65-8.41-1-12.61-.24-3.26-.58-6.52-.59-9.78C729.4,222.27,730.41,221.38,731,220.49Z" transform="translate(-602.62 -136.19)"/><path class="cls-21" d="M736.06,454.59c5.54,7.09,5.34,10.35-1.07,17.9h0l-4.1,4c-13.85,2.21-20.65-7.32-27.71-16.53-1.08-1.4-2.73-2.36-4.11-3.53.7-6.25-3.52-10.69-6-15.7-6.59-13.29-13.49-26.42-20.31-39.59a8.11,8.11,0,0,0-1.68-1.74c1.31-.63,2.58-1.34,3.94-1.85q11.87-4.47,23.75-8.86c2.28,7.81,4.46,15.66,6.88,23.43,3,9.76,6.17,19.49,9.53,29.14a5.89,5.89,0,0,0,3.73,3.33c5.15.94,10.4,1.32,16.4,2-.48,2.78-.85,5-1.28,7.48Z" transform="translate(-602.62 -136.19)"/><path class="cls-22" d="M698.78,388.66q-11.88,4.41-23.75,8.86c-1.36.51-2.63,1.22-3.94,1.85l-6.24,1.77c-3-10.54-6.63-20.7-8.62-31.18-1.8-9.49,5.32-19.37,14.31-21.07,11.1-2.1,19.05.41,23.84,11.85,3.17,7.55,4.51,15.88,6.36,23.93C701,385.79,699.48,387.32,698.78,388.66Z" transform="translate(-602.62 -136.19)"/><path class="cls-23" d="M645.64,436.33c-1-2.22-2.08-4.39-2.89-6.67-.33-.92-.44-2.71,0-3,5.12-3.28,3.29-8.46,3.8-13Q646.11,425,645.64,436.33Z" transform="translate(-602.62 -136.19)"/><path class="cls-3" d="M735,472.49l1.53,1.21-.32.33c-.4-.52-.81-1-1.21-1.54Z" transform="translate(-602.62 -136.19)"/><rect class="cls-24" x="96.38" y="127.06" width="44" height="6"/></svg>