<svg id="Layer_1" data-name="Layer 1" xmlns="http://www.w3.org/2000/svg" viewBox="0 0 177.85 473.85"><defs><style>.cls-1{fill:#aa693d;}.cls-2{fill:#4daece;}.cls-3{fill:#5e396b;}.cls-4{fill:#252020;}.cls-5{fill:#ab693c;}.cls-6{fill:#7e7366;}.cls-7{fill:#9b5f34;}.cls-8{fill:#95593d;}.cls-9{fill:#5b5348;}.cls-10{fill:#55355f;}.cls-11{fill:#f1e9df;}.cls-12{fill:#28201e;}.cls-13{fill:#251f1f;}.cls-14{fill:#271f1e;}.cls-15{fill:#97593a;}.cls-16{fill:#2d211c;}.cls-17{fill:#2a201c;}.cls-18{fill:#d7292a;}.cls-19{fill:#906c54;}.cls-20{fill:#3e1a04;}.cls-21{fill:#a96a3f;}.cls-22{fill:#039ab4;}.cls-23{fill:#f3efe8;}.cls-24{fill:#f7f3ee;}.cls-25{fill:#fff;}</style></defs><title>pic2</title><path class="cls-1" d="M670.27,308c-.54-.76-.91-1.89-1.65-2.23A121.89,121.89,0,0,1,629.38,277c-6.16,4.16-12.49,6.5-19.78,4-8.18-2.77-13-8.42-14.23-16.88s2.92-16.21,10.3-20.48c1.43-.83,2.49-2.3,3.72-3.48,3.81.18,7.49.64,10.2,3.87a13.36,13.36,0,0,0,3,2c.52-4.73.82-9,1.48-13.18,1.4-8.83,2.41-18,8.25-25.19,8.36-10.34,17-20.49,26-30.26,4.31-4.67,9.76-8,16.93-5.83a18.44,18.44,0,0,0,7,.29c15.2-1.42,30.41-2.73,45.56-4.53,9.14-1.09,17.87-1.5,23.5,7.42A274.34,274.34,0,0,1,765.87,200c2.73,5.57,3.83,11.93,5.79,18.36.35-1.44.57-2.39.8-3.34,2.1,28.25-1,54.8-24.43,74.7-11.64,9.88-25.1,16-39.94,19.34-11,2.51-21.89,3.3-32.71-1C673.89,307.47,672,308,670.27,308Zm70.42-87.81-.68-.08c-2.47-4.64-6.47-6.1-11.26-4.71-5,1.44-6.77,5.41-6.75,10.35,0,4.63.07,9.27,0,13.9-.09,5,1.75,8.72,6.54,10.55,5,1.9,8.6-.36,11.59-4.17.62-1.32,1.74-2.62,1.79-4,.2-6,.17-12,0-17.95C741.91,222.76,741.13,221.46,740.69,220.15ZM691,264.06l-4,.24c2.33,9.41,7.59,15.21,16.62,17.39a18.94,18.94,0,0,0,18.59.2c7.86-2.23,12.83-7.54,15.69-14.95.27-.71-.66-1.88-1-2.84Zm10-31h0c0-3,.19-6,0-9-.38-5-3.78-8.62-8.3-9.1s-9.93,2.18-10.27,6.06a126.11,126.11,0,0,0-.09,22.66c.44,4.8,5.39,7.62,9.93,7.17a10.08,10.08,0,0,0,8.76-9.37C701.11,238.69,701,235.86,701,233Zm-75.65,44.54.79-1.76c-2-.94-4-1.74-5.91-2.85-2.11-1.25-5.17-2.39-5.82-4.27-1-2.86-1.44-6.65,2.58-8.63a4.82,4.82,0,0,0,2-2.37c1.56-3.68,1.7-7.42-2.31-9.46-4.5-2.28-12.74.62-13.35,4.79-1,6.75-.92,13.43,4.23,19.15C612.56,277.75,618.48,279,625.32,277.58Zm79.84-67.52c.67-.6,2.7-1.69,2.61-2.55-.16-1.56-1.26-3.81-2.55-4.33C697.47,200,681.9,204.35,677,211c-.9,1.21-.44,3.44-.61,5.2,1.66,0,3.91.61,4.9-.23C688,210.26,695.46,207.69,705.16,210.06Zm21.66-8.42c-2.63.34-5.42.24-7.82,1.16-1.59.61-3.75,2.76-3.66,4.09.2,2.94,2.58,3.07,5.27,2.35,7.73-2.08,14.77-.2,21.19,4.34,1.76,1.24,3.84,3.36,5.31.58.72-1.37-.12-4.66-1.4-5.79C740.41,203.71,733.94,201.72,726.82,201.64Z" transform="translate(-595.16 -135.93)"/><path class="cls-2" d="M708.19,322.92c15.21,1,31.16,14.91,33.68,30.18,1.89,11.52,2.77,23.2,4.15,34.81,1.6,13.4,3.92,26.77,4.58,40.22.34,6.81-2.3,13.76-3.59,20.65l-1,.43c-3.66.93-7.32,1.88-11,2.8-14.18,3.53-28.64,4.3-43.17,4.43-.54-1.7-1.49-3.37-1.57-5.09-.82-17.09-1.48-34.19-2.19-51.28,3,.27,4-1,3.95-4.07a172.39,172.39,0,0,1,.13-18.47c.86-11-4.39-21.16-18.06-22.95-7.63-1-20.16,4-21,16-.78,10.91.41,22,.73,33l6.33-.46c.64,3.69,1.19,7.41,1.94,11.08,1.47,7.18,3.12,14.33,4.56,21.53,1.28,6.39,2.37,12.83,3.55,19.25l-29.87-5.46-1,4c-2.5-26.58-.82-53,2.46-79.43,1.1-8.88,2-17.79,3.25-26.66,1.87-13.71,12.09-23.7,24.77-24.47,1.26,17.86,17.07,23.43,28.82,16.93C705.14,336.34,707.45,330,708.19,322.92Z" transform="translate(-595.16 -135.93)"/><path class="cls-3" d="M691.84,456.44c14.53-.13,29-.9,43.17-4.43,3.67-.92,7.33-1.87,11-2.8-1.54,6.23-2.75,12.58-4.69,18.69-2.88,9.06-5.85,18.14-9.54,26.89-4,9.55-4.31,20.89-13.1,28.27-.59.5-.46,1.85-.66,2.8l-2,.3-.15-.32-3.85.08-10.06.19-39.5-.06c-3.32-.16-6.75.18-9.93-.57-8.87-2.09-14.68-9.92-14.51-19.6.3-17.44.87-34.88,1.33-52.32l1-4L670.19,455c.59,1.1,1.56,2.14,1.73,3.3,1.64,11.7,5.33,22.29,14,30.93,3.44,3.42,6.83,4.55,11.11,3.16a45.83,45.83,0,0,0,7.11-3.48c6.09-3.24,7.28-8.21,3.73-14.09a5.89,5.89,0,0,1-.59-4.51c1.29-3.43,1.13-5.64-3-6.68a82.85,82.85,0,0,1-11.21-3.75C692.34,459.57,692.25,457.63,691.84,456.44Z" transform="translate(-595.16 -135.93)"/><path class="cls-4" d="M772.46,215c-.23.95-.45,1.9-.8,3.34-2-6.43-3.06-12.79-5.79-18.36a274.34,274.34,0,0,0-14.63-25.21c-5.63-8.92-14.36-8.51-23.5-7.42-15.15,1.8-30.36,3.11-45.56,4.53a18.44,18.44,0,0,1-7-.29c-7.17-2.2-12.62,1.16-16.93,5.83-9,9.77-17.63,19.92-26,30.26-5.84,7.22-6.85,16.36-8.25,25.19-.66,4.19-1,8.45-1.48,13.18a13.36,13.36,0,0,1-3-2c-2.71-3.23-6.39-3.69-10.2-3.87-2.1-11-1.44-21.91.05-33.06,1.37-10.26,3.14-20.16,7.57-29.46,8.56-18,24-27.81,41.8-34.58,11.27-4.28,22.8-7.51,35.1-7.15,22.86.66,42.09,9.58,57.79,25.84,13.42,13.9,21.3,30.36,20.37,50.23A17.8,17.8,0,0,0,772.46,215Z" transform="translate(-595.16 -135.93)"/><path class="cls-5" d="M662.48,526.05l39.5.06c-.16,1.3-.23,2.62-.5,3.9q-5.22,25.57-10.49,51.15a35,35,0,0,0-2.93,2.77c-1.39,1.64-2.65,3.41-4,5.13-2.73,1-5.38,2.37-8.19,2.83-7.76,1.27-12.5-3.65-16.94-8.94l.07.09c-.35-1.35-.69-2.7-1-4Z" transform="translate(-595.16 -135.93)"/><path class="cls-6" d="M684.1,589.06c1.31-1.72,2.57-3.49,4-5.13a35,35,0,0,1,2.93-2.77l2,.9.12,1.67c-4.25,4.3-5.56,11.06-2.48,15.77.78-6.87.61-13.82,8.27-16.44l2.4,1.18c-5.47,3.21-7.71,10.24-4.54,17.81.55-3.7.93-6,1.23-8.29.53-4.2,1.6-7.88,6.93-7.78,6.26,2.42,6.87,8.1,7.62,14.38l31.28-5.4c.16.81.32,1.62.57,2.84-7.86,1.46-15.77,3-23.7,4.39-4.6.82-9.9.55-9.85,7.6l-55.19-5.44c.46-7.46.93-14.88,1.39-22.3l2,1L659,583c1.07,6,5.13,9.21,10.58,11.11,5.8,2,10.66,0,15.16-3.47C684.83,590.5,684.31,589.59,684.1,589.06Z" transform="translate(-595.16 -135.93)"/><path class="cls-7" d="M693,582.06l-2-.9q5.25-25.57,10.49-51.15c.27-1.28.34-2.6.5-3.9l10.06-.19,3.85-.08.15.32q1,21.69,2,43.37c0,.66,0,1.32,0,2,0,1,0,1.92,0,2.88-1.43,1.19-2.7,3.07-4.32,3.46C706.84,579.51,699.89,580.7,693,582.06Z" transform="translate(-595.16 -135.93)"/><path class="cls-8" d="M708.19,322.92c-.74,7-3.05,13.42-9.52,17-11.75,6.5-27.56.93-28.82-16.93.14-1,.27-2,.41-3q0-3.94,0-7.89c0-1.37,0-2.73,0-4.1,1.71,0,3.62-.49,5.11.1,10.82,4.27,21.73,3.48,32.71,1Q708.15,316,708.19,322.92Z" transform="translate(-595.16 -135.93)"/><path class="cls-9" d="M693,582.06c6.91-1.36,13.86-2.55,20.7-4.2,1.62-.39,2.89-2.27,4.32-3.46l3.74,2.31c-4.6,2-3.91,6-3.38,9.78a48.22,48.22,0,0,0,1.85,6.56l1.49-.38c-.1-5-3.53-10.26.93-14.95,8.11-4.77,16.62-1.48,19.42,7.71a83.78,83.78,0,0,1,1.76,9.53l-31.28,5.4c-.75-6.28-1.36-12-7.62-14.38l-3.62-1.74-2.4-1.18-5.79.67Zm34-3.84c-3.28,3.51-2.83,11.12,1.14,15.11C727.72,588.11,727.36,583.41,727,578.22Zm1.67-2.08-.64.36c.11.11.25.33.33.31a3.11,3.11,0,0,0,.67-.31Z" transform="translate(-595.16 -135.93)"/><path class="cls-10" d="M718,525.86c.2-1,.07-2.3.66-2.8,8.79-7.38,9.07-18.72,13.1-28.27,3.69-8.75,6.66-17.83,9.54-26.89,1.94-6.11,3.15-12.46,4.69-18.69l1-.43c-1,7.6-1.84,15.23-3.09,22.78-2.15,13-4.49,26-6.92,39C735.22,520.1,727.73,526,718,525.86Z" transform="translate(-595.16 -135.93)"/><path class="cls-1" d="M670.28,312.06q0,3.94,0,7.89Q670.26,316,670.28,312.06Z" transform="translate(-595.16 -135.93)"/><path class="cls-11" d="M659,583l-2-1c.33-1,.65-2,1-3.06C658.35,580.34,658.69,581.69,659,583Z" transform="translate(-595.16 -135.93)"/><path class="cls-9" d="M718,571.52c0-.67,0-1.33,0-2C718,570.2,718,570.86,718,571.52Z" transform="translate(-595.16 -135.93)"/><path class="cls-12" d="M701,233c0,2.82.14,5.65,0,8.46a10.08,10.08,0,0,1-8.76,9.37c-4.54.45-9.49-2.37-9.93-7.17a126.11,126.11,0,0,1,.09-22.66c.34-3.88,5.9-6.53,10.27-6.06s7.92,4.06,8.3,9.1c.23,3,0,6,0,9Z" transform="translate(-595.16 -135.93)"/><path class="cls-13" d="M740.12,246c-3,3.81-6.6,6.07-11.59,4.17-4.79-1.83-6.63-5.58-6.54-10.55.08-4.63,0-9.27,0-13.9,0-4.94,1.77-8.91,6.75-10.35,4.79-1.39,8.79.07,11.26,4.71q0,12.51,0,25A2.1,2.1,0,0,0,740.12,246Z" transform="translate(-595.16 -135.93)"/><path class="cls-14" d="M736.86,264.1c.38,1,1.31,2.13,1,2.84-2.86,7.41-7.83,12.72-15.69,14.95-5.19-7.61-13.12-7.69-18.59-.2-9-2.18-14.29-8-16.62-17.39l4-.24c0,4,2.39,5,5.87,5,11.32-.06,22.64-.09,34,0C734.39,269.06,736.48,267.73,736.86,264.1Z" transform="translate(-595.16 -135.93)"/><path class="cls-15" d="M625.32,277.58c-6.84,1.37-12.76.17-17.77-5.4-5.15-5.72-5.2-12.4-4.23-19.15.61-4.17,8.85-7.07,13.35-4.79,4,2,3.87,5.78,2.31,9.46a4.82,4.82,0,0,1-2,2.37c-4,2-3.57,5.77-2.58,8.63.65,1.88,3.71,3,5.82,4.27,1.87,1.11,3.93,1.91,5.91,2.85Z" transform="translate(-595.16 -135.93)"/><path class="cls-16" d="M705.16,210.06c-9.7-2.37-17.15.2-23.92,5.91-1,.84-3.24.19-4.9.23.17-1.76-.29-4,.61-5.2,4.95-6.65,20.52-11,28.27-7.82,1.29.52,2.39,2.77,2.55,4.33C707.86,208.37,705.83,209.46,705.16,210.06Z" transform="translate(-595.16 -135.93)"/><path class="cls-17" d="M726.82,201.64c7.12.08,13.59,2.07,18.89,6.73,1.28,1.13,2.12,4.42,1.4,5.79-1.47,2.78-3.55.66-5.31-.58-6.42-4.54-13.46-6.42-21.19-4.34-2.69.72-5.07.59-5.27-2.35-.09-1.33,2.07-3.48,3.66-4.09C721.4,201.88,724.19,202,726.82,201.64Z" transform="translate(-595.16 -135.93)"/><path class="cls-18" d="M703.62,281.69c5.47-7.49,13.4-7.41,18.59.2A18.94,18.94,0,0,1,703.62,281.69Z" transform="translate(-595.16 -135.93)"/><path class="cls-19" d="M740.12,246a2.1,2.1,0,0,1-.09-.9l.66-24.94c.44,1.31,1.22,2.61,1.25,3.93.14,6,.17,12,0,17.95C741.86,243.37,740.74,244.67,740.12,246Z" transform="translate(-595.16 -135.93)"/><path class="cls-20" d="M740.69,220.15,740,245.09q0-12.51,0-25Z" transform="translate(-595.16 -135.93)"/><path class="cls-21" d="M691.84,456.44c.41,1.19.5,3.13,1.27,3.45a82.85,82.85,0,0,0,11.21,3.75c4.09,1,4.25,3.25,3,6.68a5.89,5.89,0,0,0,.59,4.51c3.55,5.88,2.36,10.85-3.73,14.09A45.83,45.83,0,0,1,697,492.4c-4.28,1.39-7.67.26-11.11-3.16-8.67-8.64-12.36-19.23-14-30.93-.17-1.16-1.14-2.2-1.73-3.3-1.18-6.42-2.27-12.86-3.55-19.25-1.44-7.2-3.09-14.35-4.56-21.53-.75-3.67-1.3-7.39-1.94-11.08l27.94-3.08c.71,17.09,1.37,34.19,2.19,51.28C690.35,453.07,691.3,454.74,691.84,456.44Z" transform="translate(-595.16 -135.93)"/><path class="cls-22" d="M688.08,400.07l-27.94,3.08-6.33.46c-.32-11-1.51-22.09-.73-33,.86-12,13.39-17,21-16,13.67,1.79,18.92,12,18.06,22.95A172.39,172.39,0,0,0,692,396C692.12,399.05,691.08,400.34,688.08,400.07Z" transform="translate(-595.16 -135.93)"/><path class="cls-10" d="M715.89,525.84l-3.85.08Z" transform="translate(-595.16 -135.93)"/><path class="cls-11" d="M684.1,589.06c.21.53.73,1.44.61,1.53-4.5,3.49-9.36,5.48-15.16,3.47C664.1,592.16,660,589,659,583c4.44,5.29,9.18,10.21,16.94,8.94C678.72,591.43,681.37,590,684.1,589.06Z" transform="translate(-595.16 -135.93)"/><path class="cls-23" d="M701.29,584.24l3.62,1.74c-5.33-.1-6.4,3.58-6.93,7.78-.3,2.3-.68,4.59-1.23,8.29C693.58,594.48,695.82,587.45,701.29,584.24Z" transform="translate(-595.16 -135.93)"/><path class="cls-24" d="M693.1,583.73l5.79-.67c-7.66,2.62-7.49,9.57-8.27,16.44C687.54,594.79,688.85,588,693.1,583.73Z" transform="translate(-595.16 -135.93)"/><rect class="cls-25" x="95.84" y="128.32" width="44" height="6"/></svg>