<svg id="Layer_1" data-name="Layer 1" xmlns="http://www.w3.org/2000/svg" viewBox="0 0 182.45 474.97"><defs><style>.cls-1{fill:#aa693d;}.cls-2{fill:#4daece;}.cls-3{fill:#5e386a;}.cls-4{fill:#242020;}.cls-5{fill:#a96a3f;}.cls-6{fill:#ab6a3e;}.cls-7{fill:#9a5f36;}.cls-8{fill:#60584d;}.cls-9{fill:#945a3e;}.cls-10{fill:#7e7366;}.cls-11{fill:#56335f;}.cls-12{fill:#8f5a34;}.cls-13{fill:#28201e;}.cls-14{fill:#261f1e;}.cls-15{fill:#281f1d;}.cls-16{fill:#97593a;}.cls-17{fill:#ededed;}.cls-18{fill:#2c201b;}.cls-19{fill:#2b201c;}.cls-20{fill:#da2a2b;}.cls-21{fill:#049ab4;}.cls-22{fill:#f5eee5;}</style></defs><title>pic1</title><path class="cls-1" d="M541.92,326a122,122,0,0,1-40.06-28.43c-5.3,1.3-10,3.2-14.71,3.46-9.73.55-17.47-5.66-19.78-14.83A20.48,20.48,0,0,1,477.74,263c1.15-.6,2.21-1.36,3.32-2,5.84-3.72,8.42,2.48,12.8,4.56.42-3.3.76-6.2,1.15-9.09,1.58-11.69,3.42-23.36,11.35-32.79,7.59-9,15.24-18,23.34-26.59a18.62,18.62,0,0,1,14.77-6.33c12.74.28,25.53-.73,38.27-1.65,7.92-.57,15.79-1.92,23.67-2.95,4.89-.64,8.78.61,12.61,4.18,9.29,8.65,15.22,19.19,19.16,31,2.14,6.41,3.8,13,5.68,19.49,1.19,16.55.36,32.75-7.76,47.83-10.82,20.08-28.29,31.49-49.39,38.24-2.51.8-5.07,1.46-7.6,2.19-7.65.31-15.33,1.17-22.94.74C551.36,329.51,546.67,327.33,541.92,326Zm33.42-24.92c2.73,2.16,14.92,2.8,18.25.92.23-.13.26-.59.38-.89,8.48-1.95,13.13-7.86,15.87-15.6.19-.54-1.17-1.63-1.8-2.46l-45.41,0-4.08.25C559.76,292.81,568.28,300.68,575.34,301.09ZM572,252.51c0-2.83,0-5.67,0-8.5-.07-5.51-3-9-8.06-9.67-4.31-.58-9.85,2.44-10.2,6.91a119.07,119.07,0,0,0,.37,22.81c.53,4.66,5.27,6.72,10.52,6,4.51-.63,7.25-3.76,7.37-8.54C572.09,258.51,572,255.51,572,252.51Zm22-.2c0,2.66,0,5.32,0,8,.06,6,3.35,9.69,8.79,9.83,5.74.15,9.82-3.43,10.08-9.34s.23-11.63,0-17.44a9.88,9.88,0,0,0-9.55-9c-5.48.06-9.2,3.84-9.32,9.54C593.94,246.66,594,249.49,594,252.31ZM474.22,278.65c.91,3.26,1.37,6.73,2.81,9.73,2.88,6,8.14,8.93,14.68,9.3,1.69.1,4.71-.49,4.94-1.33.78-3-1.66-3.28-4-3.38-3.73-.17-6.24-2-7.06-5.78-.74-3.44.89-5.46,3.26-8,1.81-1.91,2-5.91,1.77-8.87-.12-1.27-3.26-3.07-5.12-3.2C478.53,266.66,473.9,268.35,474.22,278.65Zm123.72-57.74c-2,.33-4.42.65-6.84,1.16s-5.46,1.4-4.36,4.55c.44,1.25,3.91,2.5,5.59,2.08,8.08-2,14.93.22,21.58,4.66,1.3.87,3.63.19,5.49.23-.45-1.72-.35-4-1.44-5.06C612.58,223.34,605.68,221.67,597.94,220.91Zm-26.52,8c.75,0,1.58,0,2.41,0,2.47-.08,5.92,1.3,6.06-2.92.12-3.78-3.31-3.68-5.81-3.91-9.3-.85-17.71,1.29-24.84,7.72-2,1.84-3.41,3.77-1,5.66,1,.8,3.94.34,5.24-.6C558.84,231,564.4,228,571.42,228.94Z" transform="translate(-466.74 -155.42)"/><path class="cls-2" d="M621,463.85l-1.87,4.08c-2.45,1-4.82,2.25-7.35,2.84A201.09,201.09,0,0,1,532,473.18c-4.57-2.92-5.17-5.55-3.15-10.14,7.17-16.28,14.17-32.65,21.23-49,2.64,1.06,4,.1,5.25-2.46,3-6.29,6.42-12.4,9.68-18.58,5.13-9.71,1.07-21.69-9.21-27.12-9-4.79-21.62-1-26.26,8.21-3.51,7-6.56,14.17-9.75,21.3-.91,2-1.59,4.16-2.29,6l5.52,3.37c-3,12.43-5.93,24.89-9.06,37.3-1,3.82-2.44,7.52-3.69,11.28-1.15-20.82,1.05-41.45,3.37-62.07,1-8.57,1.84-17.17,3.4-25.64,2.49-13.54,11.08-21.42,24.79-23.58.06.83.16,1.65.18,2.48a18.4,18.4,0,0,0,24.26,16.76c9.2-3.11,12.9-9.92,13.06-19.16,18.11,2.37,32.5,16.25,34.71,33.85,1.85,14.72,3.32,29.48,5.08,44.21.83,7,1.94,13.88,2.92,20.81Q621.53,452.45,621,463.85Z" transform="translate(-466.74 -155.42)"/><path class="cls-3" d="M532,473.18a201.09,201.09,0,0,0,79.85-2.41c2.53-.59,4.9-1.88,7.35-2.84-.09,4.95.07,9.92-.34,14.84-.78,9.29-1.72,18.58-2.92,27.82-1,7.74-1.74,15.64-4,23.05-2.12,7-7.71,11-15.57,10.52l-1,.19-1,.56c-7.16.78-14.33,1.45-21.47,2.36-6.32.81-12.6,1.9-18.9,2.87L550.74,554,542,551.11c-1.39-3.86-4.64-1.46-7-2.07h0l-3.06-5.49a37.33,37.33,0,0,1-2.86-5.21,57.16,57.16,0,0,1-2-7.67C525,520.82,523,511,521,501.1c.33,0,.66-.07,1-.08,10.93-.33,12.62-2.22,12.22-13.18a3.75,3.75,0,0,1,1.92-2.72c3.62-1.63,3-3.89,1.12-6.27C535.62,476.85,533.73,475.06,532,473.18Z" transform="translate(-466.74 -155.42)"/><path class="cls-4" d="M643.86,240.78c-1.88-6.5-3.54-13.08-5.68-19.49-3.94-11.81-9.87-22.35-19.16-31-3.83-3.57-7.72-4.82-12.61-4.18-7.88,1-15.75,2.38-23.67,2.95-12.74.92-25.53,1.93-38.27,1.65A18.62,18.62,0,0,0,529.7,197c-8.1,8.57-15.75,17.56-23.34,26.59-7.93,9.43-9.77,21.1-11.35,32.79-.39,2.89-.73,5.79-1.15,9.09-4.38-2.08-7-8.28-12.8-4.56-3.26-15.6-1-31.06,1.8-46.36,4-21.87,16.73-37.27,36.62-47.11,25.69-12.7,52-17.3,78.69-4.23,24.23,11.86,40.94,30.44,45.1,58.12C644.22,227.73,643.7,234.3,643.86,240.78Z" transform="translate(-466.74 -155.42)"/><path class="cls-5" d="M532,473.18c1.76,1.88,3.65,3.67,5.27,5.67,1.9,2.38,2.5,4.64-1.12,6.27a3.75,3.75,0,0,0-1.92,2.72c.4,11-1.29,12.85-12.22,13.18-.33,0-.66.05-1,.08-4.85,1.17-8-2.34-11.77-4.22-3.7-13.1-3.81-26.11.74-39.07.47-1.35.2-2.95.28-4.43,1.25-3.75,2.73-7.45,3.69-11.27,3.13-12.41,6.06-24.87,9.06-37.3l27.06,9.25c-7.06,16.33-14.06,32.7-21.23,49C526.8,467.63,527.4,470.26,532,473.18Z" transform="translate(-466.74 -155.42)"/><path class="cls-6" d="M554,550.14c6.3-1,12.58-2.06,18.9-2.87,7.14-.91,14.31-1.58,21.47-2.36q9.2,18.18,18.36,36.36c.51,1,.82,2.13,1.23,3.19q1,5.28,2,10.56c-7,12.41-11.7,14.65-24,11.44l-4.5-3.45c-7.11-10.31-14.19-20.65-21.36-30.91-2.25-3.21-4.77-6.22-7.16-9.33Q556.47,556.45,554,550.14Z" transform="translate(-466.74 -155.42)"/><path class="cls-7" d="M554,550.14q2.46,6.32,4.94,12.63-9.09,16.92-18.15,33.85a12.68,12.68,0,0,0-.74,2.23c-9.69-3.35-19.4-6.66-29-10.2-.41-.15,0-2.5,0-3.82l14.08-36.91L535,549h0l7,2.07,8.77,2.92Z" transform="translate(-466.74 -155.42)"/><path class="cls-8" d="M511,584.83c0,1.32-.4,3.67,0,3.82,9.62,3.54,19.33,6.85,29,10.2l1.43,1.31C535.82,602,531.3,610,533.4,615c3.49-6,4-15.87,15.7-11.92-7,1.58-11.76,8.83-9.9,15.48,1.37-3.23,2.53-5.79,3.56-8.4,1.28-3.3,3.86-5.85,7.06-4.78,2.24.75,4.5,3.84,5.22,6.32,1.88,6.55-1.56,12.22-4.53,18.67l-52.2-19.89c3.19-8.5,6.3-16.88,9.6-25.19C508.11,584.82,510,585,511,584.83Z" transform="translate(-466.74 -155.42)"/><path class="cls-9" d="M579.3,342.18c-.16,9.24-3.86,16.05-13.06,19.16A18.4,18.4,0,0,1,542,344.58c0-.83-.12-1.65-.18-2.48l.12-16.09c4.75,1.32,9.44,3.5,14.25,3.77,7.61.43,15.29-.43,22.94-.74Q579.2,335.61,579.3,342.18Z" transform="translate(-466.74 -155.42)"/><path class="cls-10" d="M587.47,603l4.5,3.45c.29.53.45,1.3.9,1.56,10.83,6.2,24.46-2.55,23.1-13q-1-5.28-2-10.56l4.53.72c-1,5,1.13,10.31,6.56,14.93l1.14-.61c-1.31-2.13-2.63-4.25-3.92-6.38-2.45-4-2.25-9.12,1.05-11,2.71-1.54,6.12-3,9-2.72a16.64,16.64,0,0,1,9.11,4.37c3,2.9,5,6.89,7.72,10.83L602,625.89Zm42.92-5.61,1.56-.68c-2.32-4.4-4.63-8.81-7.54-14.35C623.63,589.52,627.6,593.2,630.39,597.4Z" transform="translate(-466.74 -155.42)"/><path class="cls-11" d="M535,549l-9.85-1.12c-4.05-1.25-8-2.88-12.16-3.63-3.72-.68-5.1-2.4-5-6,.47-13.8.84-27.6,1.25-41.41,3.75,1.88,6.92,5.39,11.77,4.22,2,9.86,4,19.72,6.07,29.57a57.16,57.16,0,0,0,2,7.67,37.33,37.33,0,0,0,2.86,5.21Z" transform="translate(-466.74 -155.42)"/><path class="cls-12" d="M621,463.85q.48-11.4,1-22.8c3.46-1.13,6.93-2.23,10.38-3.39,5.64-1.91,7.26-.72,7,4.2,3.09,2.44,6.68,4,8.17,6.73,3.33,6.11-1.48,11.05-4.21,15.89-2,3.6-6.1,3.51-9.86,2.57C629.32,466,625.18,464.92,621,463.85Z" transform="translate(-466.74 -155.42)"/><path class="cls-6" d="M595.33,544.35l1-.19Z" transform="translate(-466.74 -155.42)"/><path class="cls-13" d="M572,252.51c0,3,.07,6,0,9-.12,4.78-2.86,7.91-7.37,8.54-5.25.73-10-1.33-10.52-6a119.07,119.07,0,0,1-.37-22.81c.35-4.47,5.89-7.49,10.2-6.91,5.06.68,8,4.16,8.06,9.67C572.05,246.84,572,249.68,572,252.51Z" transform="translate(-466.74 -155.42)"/><path class="cls-14" d="M594,252.31c0-2.82,0-5.65,0-8.47.12-5.7,3.84-9.48,9.32-9.54a9.88,9.88,0,0,1,9.55,9c.23,5.81.24,11.64,0,17.44s-4.34,9.49-10.08,9.34c-5.44-.14-8.73-3.81-8.79-9.83C594,257.63,594,255,594,252.31Z" transform="translate(-466.74 -155.42)"/><path class="cls-15" d="M608,283.06c.63.83,2,1.92,1.8,2.46-2.74,7.74-7.39,13.65-15.87,15.59-6.31-6.86-13.6-6.87-18.63,0-7.06-.41-15.58-8.28-16.79-17.74l4.08-.25c-.43,3.85,1.61,5.48,5.18,5.49q17.58,0,35.18,0C606.62,288.57,608.57,286.92,608,283.06Z" transform="translate(-466.74 -155.42)"/><path class="cls-16" d="M474.22,278.65c-.32-10.3,4.31-12,11.27-11.5,1.86.13,5,1.93,5.12,3.2.27,3,0,7-1.77,8.87-2.37,2.51-4,4.53-3.26,8,.82,3.79,3.33,5.61,7.06,5.78,2.35.1,4.79.4,4,3.38-.23.84-3.25,1.43-4.94,1.33-6.54-.37-11.8-3.31-14.68-9.3C475.59,285.38,475.13,281.91,474.22,278.65Z" transform="translate(-466.74 -155.42)"/><path class="cls-17" d="M608,283.06c.53,3.86-1.42,5.51-5,5.52q-17.6,0-35.18,0c-3.57,0-5.61-1.64-5.18-5.49Z" transform="translate(-466.74 -155.42)"/><path class="cls-18" d="M597.94,220.91c7.74.76,14.64,2.43,20,7.62,1.09,1.06,1,3.34,1.44,5.06-1.86,0-4.19.64-5.49-.23-6.65-4.44-13.5-6.67-21.58-4.66-1.68.42-5.15-.83-5.59-2.08-1.1-3.15,1.87-4,4.36-4.55S596,221.24,597.94,220.91Z" transform="translate(-466.74 -155.42)"/><path class="cls-19" d="M571.42,228.94c-7-.95-12.58,2-18,5.95-1.3.94-4.24,1.4-5.24.6-2.38-1.89-1-3.82,1-5.66,7.13-6.43,15.54-8.57,24.84-7.72,2.5.23,5.93.13,5.81,3.91-.14,4.22-3.59,2.84-6.06,2.92C573,229,572.17,228.94,571.42,228.94Z" transform="translate(-466.74 -155.42)"/><path class="cls-20" d="M575.34,301.09c5-6.85,12.32-6.84,18.63,0-.12.31-.15.77-.38.9C590.26,303.89,578.07,303.25,575.34,301.09Z" transform="translate(-466.74 -155.42)"/><path class="cls-21" d="M550.05,414.06,523,404.81l-5.52-3.37c.7-1.87,1.38-4,2.29-6,3.19-7.13,6.24-14.33,9.75-21.3,4.64-9.22,17.21-13,26.26-8.21,10.28,5.43,14.34,17.41,9.21,27.12-3.26,6.18-6.65,12.29-9.68,18.58C554.07,414.16,552.69,415.12,550.05,414.06Z" transform="translate(-466.74 -155.42)"/><path class="cls-11" d="M542,551.11,535,549C537.33,549.65,540.58,547.25,542,551.11Z" transform="translate(-466.74 -155.42)"/><path class="cls-22" d="M616,595c1.36,10.45-12.27,19.2-23.1,13-.45-.26-.61-1-.9-1.56C604.27,609.67,609,607.43,616,595Z" transform="translate(-466.74 -155.42)"/></svg>